<svg width="1003" height="198" viewBox="0 0 1003 198" fill="none" xmlns="http://www.w3.org/2000/svg">
<g opacity="0.6">
<path d="M0.84 21.638V22.814H1.82V25.754H0.784V27H7.994V25.754H3.164V22.814H4.802V21.638H3.164V20.042C3.164 18.922 3.794 18.25 4.858 18.25C5.95 18.25 6.594 18.936 6.594 20.042V20.882H7.938V20.07C7.938 18.11 6.748 17.004 4.816 17.004C2.982 17.004 1.82 18.068 1.82 20.07V21.638H0.84ZM11.562 17.2L8.88803 21.498H10.4L12.136 18.684H12.304V27H13.69L13.704 17.2H11.562ZM22.3423 20.126H20.3963L16.9103 23.206V17.2H15.5943V27H16.9103V24.816L18.1843 23.71L20.6763 27H22.2863L19.1223 22.898L22.3423 20.126Z" fill="#333B4F"/>
<path d="M0.84 21.638V22.814H1.82V25.754H0.784V27H7.994V25.754H3.164V22.814H4.802V21.638H3.164V20.042C3.164 18.922 3.794 18.25 4.858 18.25C5.95 18.25 6.594 18.936 6.594 20.042V20.882H7.938V20.07C7.938 18.11 6.748 17.004 4.816 17.004C2.982 17.004 1.82 18.068 1.82 20.07V21.638H0.84ZM11.562 17.2L8.88803 21.498H10.4L12.136 18.684H12.304V27H13.69L13.704 17.2H11.562ZM22.3423 20.126H20.3963L16.9103 23.206V17.2H15.5943V27H16.9103V24.816L18.1843 23.71L20.6763 27H22.2863L19.1223 22.898L22.3423 20.126Z" fill="#192135"/>
</g>
<g opacity="0.6">
<path d="M0.84 67.638V68.814H1.82V71.754H0.784V73H7.994V71.754H3.164V68.814H4.802V67.638H3.164V66.042C3.164 64.922 3.794 64.25 4.858 64.25C5.95 64.25 6.594 64.936 6.594 66.042V66.882H7.938V66.07C7.938 64.11 6.748 63.004 4.816 63.004C2.982 63.004 1.82 64.068 1.82 66.07V67.638H0.84ZM9.63003 63.2V68.52H11.52C11.73 68.114 12.164 67.582 13.13 67.582C14.264 67.582 15.02 68.366 15.02 69.654C15.02 71.082 14.222 71.964 12.85 71.964C11.52 71.964 10.68 71.166 10.68 69.766V69.542H9.30803V69.85C9.30803 71.866 10.75 73.196 12.892 73.196C15.034 73.196 16.42 71.726 16.42 69.612C16.42 67.61 15.076 66.406 13.466 66.406C12.052 66.406 11.464 67.12 11.184 67.624H11.016V64.446H16.126V63.2H9.63003ZM17.4734 66.98V69.22C17.4734 71.824 18.8874 73.196 21.1134 73.196C23.3394 73.196 24.7394 71.824 24.7394 69.22V66.98C24.7394 64.418 23.3394 63.004 21.1134 63.004C18.8874 63.004 17.4734 64.418 17.4734 66.98ZM18.8594 66.91C18.8594 65.286 19.6434 64.236 21.1134 64.236C22.5554 64.236 23.3674 65.258 23.3674 66.91V69.29C23.3674 70.928 22.6394 71.964 21.1134 71.964C19.6014 71.964 18.8594 70.956 18.8594 69.29V66.91ZM25.991 66.98V69.22C25.991 71.824 27.405 73.196 29.631 73.196C31.857 73.196 33.257 71.824 33.257 69.22V66.98C33.257 64.418 31.857 63.004 29.631 63.004C27.405 63.004 25.991 64.418 25.991 66.98ZM27.377 66.91C27.377 65.286 28.161 64.236 29.631 64.236C31.073 64.236 31.885 65.258 31.885 66.91V69.29C31.885 70.928 31.157 71.964 29.631 71.964C28.119 71.964 27.377 70.956 27.377 69.29V66.91Z" fill="#333B4F"/>
<path d="M0.84 67.638V68.814H1.82V71.754H0.784V73H7.994V71.754H3.164V68.814H4.802V67.638H3.164V66.042C3.164 64.922 3.794 64.25 4.858 64.25C5.95 64.25 6.594 64.936 6.594 66.042V66.882H7.938V66.07C7.938 64.11 6.748 63.004 4.816 63.004C2.982 63.004 1.82 64.068 1.82 66.07V67.638H0.84ZM9.63003 63.2V68.52H11.52C11.73 68.114 12.164 67.582 13.13 67.582C14.264 67.582 15.02 68.366 15.02 69.654C15.02 71.082 14.222 71.964 12.85 71.964C11.52 71.964 10.68 71.166 10.68 69.766V69.542H9.30803V69.85C9.30803 71.866 10.75 73.196 12.892 73.196C15.034 73.196 16.42 71.726 16.42 69.612C16.42 67.61 15.076 66.406 13.466 66.406C12.052 66.406 11.464 67.12 11.184 67.624H11.016V64.446H16.126V63.2H9.63003ZM17.4734 66.98V69.22C17.4734 71.824 18.8874 73.196 21.1134 73.196C23.3394 73.196 24.7394 71.824 24.7394 69.22V66.98C24.7394 64.418 23.3394 63.004 21.1134 63.004C18.8874 63.004 17.4734 64.418 17.4734 66.98ZM18.8594 66.91C18.8594 65.286 19.6434 64.236 21.1134 64.236C22.5554 64.236 23.3674 65.258 23.3674 66.91V69.29C23.3674 70.928 22.6394 71.964 21.1134 71.964C19.6014 71.964 18.8594 70.956 18.8594 69.29V66.91ZM25.991 66.98V69.22C25.991 71.824 27.405 73.196 29.631 73.196C31.857 73.196 33.257 71.824 33.257 69.22V66.98C33.257 64.418 31.857 63.004 29.631 63.004C27.405 63.004 25.991 64.418 25.991 66.98ZM27.377 66.91C27.377 65.286 28.161 64.236 29.631 64.236C31.073 64.236 31.885 65.258 31.885 66.91V69.29C31.885 70.928 31.157 71.964 29.631 71.964C28.119 71.964 27.377 70.956 27.377 69.29V66.91Z" fill="#192135"/>
</g>
<g opacity="0.6">
<path d="M0.84 113.638V114.814H1.82V117.754H0.784V119H7.994V117.754H3.164V114.814H4.802V113.638H3.164V112.042C3.164 110.922 3.794 110.25 4.858 110.25C5.95 110.25 6.594 110.936 6.594 112.042V112.882H7.938V112.07C7.938 110.11 6.748 109.004 4.816 109.004C2.982 109.004 1.82 110.068 1.82 112.07V113.638H0.84ZM11.562 109.2L8.88803 113.498H10.4L12.136 110.684H12.304V119H13.69L13.704 109.2H11.562ZM15.2723 112.98V115.22C15.2723 117.824 16.6863 119.196 18.9123 119.196C21.1383 119.196 22.5383 117.824 22.5383 115.22V112.98C22.5383 110.418 21.1383 109.004 18.9123 109.004C16.6863 109.004 15.2723 110.418 15.2723 112.98ZM16.6583 112.91C16.6583 111.286 17.4423 110.236 18.9123 110.236C20.3543 110.236 21.1663 111.258 21.1663 112.91V115.29C21.1663 116.928 20.4383 117.964 18.9123 117.964C17.4003 117.964 16.6583 116.956 16.6583 115.29V112.91ZM23.7898 112.98V115.22C23.7898 117.824 25.2038 119.196 27.4298 119.196C29.6558 119.196 31.0558 117.824 31.0558 115.22V112.98C31.0558 110.418 29.6558 109.004 27.4298 109.004C25.2038 109.004 23.7898 110.418 23.7898 112.98ZM25.1758 112.91C25.1758 111.286 25.9598 110.236 27.4298 110.236C28.8718 110.236 29.6838 111.258 29.6838 112.91V115.29C29.6838 116.928 28.9558 117.964 27.4298 117.964C25.9178 117.964 25.1758 116.956 25.1758 115.29V112.91Z" fill="#333B4F"/>
<path d="M0.84 113.638V114.814H1.82V117.754H0.784V119H7.994V117.754H3.164V114.814H4.802V113.638H3.164V112.042C3.164 110.922 3.794 110.25 4.858 110.25C5.95 110.25 6.594 110.936 6.594 112.042V112.882H7.938V112.07C7.938 110.11 6.748 109.004 4.816 109.004C2.982 109.004 1.82 110.068 1.82 112.07V113.638H0.84ZM11.562 109.2L8.88803 113.498H10.4L12.136 110.684H12.304V119H13.69L13.704 109.2H11.562ZM15.2723 112.98V115.22C15.2723 117.824 16.6863 119.196 18.9123 119.196C21.1383 119.196 22.5383 117.824 22.5383 115.22V112.98C22.5383 110.418 21.1383 109.004 18.9123 109.004C16.6863 109.004 15.2723 110.418 15.2723 112.98ZM16.6583 112.91C16.6583 111.286 17.4423 110.236 18.9123 110.236C20.3543 110.236 21.1663 111.258 21.1663 112.91V115.29C21.1663 116.928 20.4383 117.964 18.9123 117.964C17.4003 117.964 16.6583 116.956 16.6583 115.29V112.91ZM23.7898 112.98V115.22C23.7898 117.824 25.2038 119.196 27.4298 119.196C29.6558 119.196 31.0558 117.824 31.0558 115.22V112.98C31.0558 110.418 29.6558 109.004 27.4298 109.004C25.2038 109.004 23.7898 110.418 23.7898 112.98ZM25.1758 112.91C25.1758 111.286 25.9598 110.236 27.4298 110.236C28.8718 110.236 29.6838 111.258 29.6838 112.91V115.29C29.6838 116.928 28.9558 117.964 27.4298 117.964C25.9178 117.964 25.1758 116.956 25.1758 115.29V112.91Z" fill="#192135"/>
</g>
<g opacity="0.6">
<path d="M0.616 158.98V161.22C0.616 163.824 2.03 165.196 4.256 165.196C6.482 165.196 7.882 163.824 7.882 161.22V158.98C7.882 156.418 6.482 155.004 4.256 155.004C2.03 155.004 0.616 156.418 0.616 158.98ZM2.002 158.91C2.002 157.286 2.786 156.236 4.256 156.236C5.698 156.236 6.51 157.258 6.51 158.91V161.29C6.51 162.928 5.782 163.964 4.256 163.964C2.744 163.964 2.002 162.956 2.002 161.29V158.91Z" fill="#333B4F"/>
<path d="M0.616 158.98V161.22C0.616 163.824 2.03 165.196 4.256 165.196C6.482 165.196 7.882 163.824 7.882 161.22V158.98C7.882 156.418 6.482 155.004 4.256 155.004C2.03 155.004 0.616 156.418 0.616 158.98ZM2.002 158.91C2.002 157.286 2.786 156.236 4.256 156.236C5.698 156.236 6.51 157.258 6.51 158.91V161.29C6.51 162.928 5.782 163.964 4.256 163.964C2.744 163.964 2.002 162.956 2.002 161.29V158.91Z" fill="#192135"/>
</g>
<g opacity="0.6">
<path d="M42.41 183.2L38.168 189.822V191.026H43.236V193H44.622V191.026H46.288V189.78H44.622V183.2H42.41ZM43.068 184.432H43.236V189.78H39.638L43.068 184.432ZM47.1645 187.974L48.3965 188.366C48.5645 187.582 49.1245 187.008 50.1605 187.008C51.2105 187.008 51.7285 187.596 51.7285 188.45V188.898H49.5445C48.0465 188.898 46.9405 189.612 46.9405 191.026C46.9405 192.412 48.0465 193.196 49.4745 193.196C50.8045 193.196 51.3365 192.538 51.5885 192.076H51.7565V193H53.0165V188.534C53.0165 186.882 51.9385 185.93 50.1745 185.93C48.4245 185.93 47.5005 186.854 47.1645 187.974ZM48.2565 190.998C48.2565 190.326 48.8025 189.962 49.6145 189.962H51.7285V190.102C51.7285 191.348 50.9025 192.118 49.6985 192.118C48.8025 192.118 48.2565 191.67 48.2565 190.998ZM54.811 186.126V193H56.127V188.856C56.127 187.722 56.757 187.092 57.695 187.092C58.577 187.092 59.081 187.61 59.081 188.478V193H60.397V188.856C60.397 187.722 61.027 187.092 61.965 187.092C62.847 187.092 63.365 187.61 63.365 188.478V193H64.667V188.394C64.667 186.868 63.687 186 62.357 186C61.251 186 60.635 186.49 60.271 187.19H60.131C59.823 186.504 59.207 186 58.157 186C57.135 186 56.547 186.434 56.239 187.008H56.099V186.126H54.811Z" fill="#333B4F"/>
<path d="M42.41 183.2L38.168 189.822V191.026H43.236V193H44.622V191.026H46.288V189.78H44.622V183.2H42.41ZM43.068 184.432H43.236V189.78H39.638L43.068 184.432ZM47.1645 187.974L48.3965 188.366C48.5645 187.582 49.1245 187.008 50.1605 187.008C51.2105 187.008 51.7285 187.596 51.7285 188.45V188.898H49.5445C48.0465 188.898 46.9405 189.612 46.9405 191.026C46.9405 192.412 48.0465 193.196 49.4745 193.196C50.8045 193.196 51.3365 192.538 51.5885 192.076H51.7565V193H53.0165V188.534C53.0165 186.882 51.9385 185.93 50.1745 185.93C48.4245 185.93 47.5005 186.854 47.1645 187.974ZM48.2565 190.998C48.2565 190.326 48.8025 189.962 49.6145 189.962H51.7285V190.102C51.7285 191.348 50.9025 192.118 49.6985 192.118C48.8025 192.118 48.2565 191.67 48.2565 190.998ZM54.811 186.126V193H56.127V188.856C56.127 187.722 56.757 187.092 57.695 187.092C58.577 187.092 59.081 187.61 59.081 188.478V193H60.397V188.856C60.397 187.722 61.027 187.092 61.965 187.092C62.847 187.092 63.365 187.61 63.365 188.478V193H64.667V188.394C64.667 186.868 63.687 186 62.357 186C61.251 186 60.635 186.49 60.271 187.19H60.131C59.823 186.504 59.207 186 58.157 186C57.135 186 56.547 186.434 56.239 187.008H56.099V186.126H54.811Z" fill="#192135"/>
</g>
<g opacity="0.6">
<path d="M103.602 185.65C103.602 186.91 104.47 187.554 105.268 187.848V188.016C104.484 188.198 103.434 188.954 103.434 190.382C103.434 192.062 104.918 193.196 107.018 193.196C109.132 193.196 110.602 192.062 110.602 190.382C110.602 188.954 109.566 188.198 108.782 188.016V187.848C109.58 187.554 110.448 186.91 110.448 185.65C110.448 184.124 109.09 183.004 107.018 183.004C104.96 183.004 103.602 184.124 103.602 185.65ZM104.988 185.79C104.988 184.796 105.842 184.236 107.018 184.236C108.208 184.236 109.062 184.796 109.062 185.79C109.062 186.77 108.208 187.344 107.018 187.344C105.842 187.344 104.988 186.77 104.988 185.79ZM104.82 190.27C104.82 189.192 105.688 188.576 107.018 188.576C108.362 188.576 109.23 189.192 109.23 190.27C109.23 191.334 108.362 191.964 107.018 191.964C105.688 191.964 104.82 191.334 104.82 190.27ZM111.823 187.974L113.055 188.366C113.223 187.582 113.783 187.008 114.819 187.008C115.869 187.008 116.387 187.596 116.387 188.45V188.898H114.203C112.705 188.898 111.599 189.612 111.599 191.026C111.599 192.412 112.705 193.196 114.133 193.196C115.463 193.196 115.995 192.538 116.247 192.076H116.415V193H117.675V188.534C117.675 186.882 116.597 185.93 114.833 185.93C113.083 185.93 112.159 186.854 111.823 187.974ZM112.915 190.998C112.915 190.326 113.461 189.962 114.273 189.962H116.387V190.102C116.387 191.348 115.561 192.118 114.357 192.118C113.461 192.118 112.915 191.67 112.915 190.998ZM119.469 186.126V193H120.785V188.856C120.785 187.722 121.415 187.092 122.353 187.092C123.235 187.092 123.739 187.61 123.739 188.478V193H125.055V188.856C125.055 187.722 125.685 187.092 126.623 187.092C127.505 187.092 128.023 187.61 128.023 188.478V193H129.325V188.394C129.325 186.868 128.345 186 127.015 186C125.909 186 125.293 186.49 124.929 187.19H124.789C124.481 186.504 123.865 186 122.815 186C121.793 186 121.205 186.434 120.897 187.008H120.757V186.126H119.469Z" fill="#333B4F"/>
<path d="M103.602 185.65C103.602 186.91 104.47 187.554 105.268 187.848V188.016C104.484 188.198 103.434 188.954 103.434 190.382C103.434 192.062 104.918 193.196 107.018 193.196C109.132 193.196 110.602 192.062 110.602 190.382C110.602 188.954 109.566 188.198 108.782 188.016V187.848C109.58 187.554 110.448 186.91 110.448 185.65C110.448 184.124 109.09 183.004 107.018 183.004C104.96 183.004 103.602 184.124 103.602 185.65ZM104.988 185.79C104.988 184.796 105.842 184.236 107.018 184.236C108.208 184.236 109.062 184.796 109.062 185.79C109.062 186.77 108.208 187.344 107.018 187.344C105.842 187.344 104.988 186.77 104.988 185.79ZM104.82 190.27C104.82 189.192 105.688 188.576 107.018 188.576C108.362 188.576 109.23 189.192 109.23 190.27C109.23 191.334 108.362 191.964 107.018 191.964C105.688 191.964 104.82 191.334 104.82 190.27ZM111.823 187.974L113.055 188.366C113.223 187.582 113.783 187.008 114.819 187.008C115.869 187.008 116.387 187.596 116.387 188.45V188.898H114.203C112.705 188.898 111.599 189.612 111.599 191.026C111.599 192.412 112.705 193.196 114.133 193.196C115.463 193.196 115.995 192.538 116.247 192.076H116.415V193H117.675V188.534C117.675 186.882 116.597 185.93 114.833 185.93C113.083 185.93 112.159 186.854 111.823 187.974ZM112.915 190.998C112.915 190.326 113.461 189.962 114.273 189.962H116.387V190.102C116.387 191.348 115.561 192.118 114.357 192.118C113.461 192.118 112.915 191.67 112.915 190.998ZM119.469 186.126V193H120.785V188.856C120.785 187.722 121.415 187.092 122.353 187.092C123.235 187.092 123.739 187.61 123.739 188.478V193H125.055V188.856C125.055 187.722 125.685 187.092 126.623 187.092C127.505 187.092 128.023 187.61 128.023 188.478V193H129.325V188.394C129.325 186.868 128.345 186 127.015 186C125.909 186 125.293 186.49 124.929 187.19H124.789C124.481 186.504 123.865 186 122.815 186C121.793 186 121.205 186.434 120.897 187.008H120.757V186.126H119.469Z" fill="#192135"/>
</g>
<g opacity="0.6">
<path d="M170.73 183.2L168.056 187.498H169.568L171.304 184.684H171.472V193H172.858L172.872 183.2H170.73ZM174.37 186.42V186.756H175.756V186.462C175.756 184.978 176.708 184.236 177.968 184.236C179.2 184.236 180.026 184.95 180.026 186.168C180.026 187.428 179.102 188.03 177.562 188.422C175.672 188.912 174.37 189.71 174.37 191.642V193H181.398V191.754H175.77V191.502C175.77 190.242 176.638 189.92 178.22 189.514C180.236 188.996 181.412 188.058 181.412 186.196C181.412 184.236 179.886 183.004 177.954 183.004C175.98 183.004 174.37 184.208 174.37 186.42ZM182.829 195.8H184.145V191.95H184.285C184.677 192.58 185.391 193.196 186.735 193.196C188.485 193.196 189.941 191.796 189.941 189.57C189.941 187.344 188.485 185.93 186.735 185.93C185.391 185.93 184.677 186.546 184.257 187.232H184.117V186.126H182.829V195.8ZM186.385 192.048C185.069 192.048 184.131 191.11 184.131 189.57C184.131 188.016 185.069 187.078 186.385 187.078C187.687 187.078 188.611 188.002 188.611 189.57C188.611 191.124 187.687 192.048 186.385 192.048ZM191.387 186.126V193H192.703V188.856C192.703 187.722 193.333 187.092 194.271 187.092C195.153 187.092 195.657 187.61 195.657 188.478V193H196.973V188.856C196.973 187.722 197.603 187.092 198.541 187.092C199.423 187.092 199.941 187.61 199.941 188.478V193H201.243V188.394C201.243 186.868 200.263 186 198.933 186C197.827 186 197.211 186.49 196.847 187.19H196.707C196.399 186.504 195.783 186 194.733 186C193.711 186 193.123 186.434 192.815 187.008H192.675V186.126H191.387Z" fill="#333B4F"/>
<path d="M170.73 183.2L168.056 187.498H169.568L171.304 184.684H171.472V193H172.858L172.872 183.2H170.73ZM174.37 186.42V186.756H175.756V186.462C175.756 184.978 176.708 184.236 177.968 184.236C179.2 184.236 180.026 184.95 180.026 186.168C180.026 187.428 179.102 188.03 177.562 188.422C175.672 188.912 174.37 189.71 174.37 191.642V193H181.398V191.754H175.77V191.502C175.77 190.242 176.638 189.92 178.22 189.514C180.236 188.996 181.412 188.058 181.412 186.196C181.412 184.236 179.886 183.004 177.954 183.004C175.98 183.004 174.37 184.208 174.37 186.42ZM182.829 195.8H184.145V191.95H184.285C184.677 192.58 185.391 193.196 186.735 193.196C188.485 193.196 189.941 191.796 189.941 189.57C189.941 187.344 188.485 185.93 186.735 185.93C185.391 185.93 184.677 186.546 184.257 187.232H184.117V186.126H182.829V195.8ZM186.385 192.048C185.069 192.048 184.131 191.11 184.131 189.57C184.131 188.016 185.069 187.078 186.385 187.078C187.687 187.078 188.611 188.002 188.611 189.57C188.611 191.124 187.687 192.048 186.385 192.048ZM191.387 186.126V193H192.703V188.856C192.703 187.722 193.333 187.092 194.271 187.092C195.153 187.092 195.657 187.61 195.657 188.478V193H196.973V188.856C196.973 187.722 197.603 187.092 198.541 187.092C199.423 187.092 199.941 187.61 199.941 188.478V193H201.243V188.394C201.243 186.868 200.263 186 198.933 186C197.827 186 197.211 186.49 196.847 187.19H196.707C196.399 186.504 195.783 186 194.733 186C193.711 186 193.123 186.434 192.815 187.008H192.675V186.126H191.387Z" fill="#192135"/>
</g>
<g opacity="0.6">
<path d="M244.41 183.2L240.168 189.822V191.026H245.236V193H246.622V191.026H248.288V189.78H246.622V183.2H244.41ZM245.068 184.432H245.236V189.78H241.638L245.068 184.432ZM249.333 195.8H250.649V191.95H250.789C251.181 192.58 251.895 193.196 253.239 193.196C254.989 193.196 256.445 191.796 256.445 189.57C256.445 187.344 254.989 185.93 253.239 185.93C251.895 185.93 251.181 186.546 250.761 187.232H250.621V186.126H249.333V195.8ZM252.889 192.048C251.573 192.048 250.635 191.11 250.635 189.57C250.635 188.016 251.573 187.078 252.889 187.078C254.191 187.078 255.115 188.002 255.115 189.57C255.115 191.124 254.191 192.048 252.889 192.048ZM257.891 186.126V193H259.207V188.856C259.207 187.722 259.837 187.092 260.775 187.092C261.657 187.092 262.161 187.61 262.161 188.478V193H263.477V188.856C263.477 187.722 264.107 187.092 265.045 187.092C265.927 187.092 266.445 187.61 266.445 188.478V193H267.747V188.394C267.747 186.868 266.767 186 265.437 186C264.331 186 263.715 186.49 263.351 187.19H263.211C262.903 186.504 262.287 186 261.237 186C260.215 186 259.627 186.434 259.319 187.008H259.179V186.126H257.891Z" fill="#333B4F"/>
<path d="M244.41 183.2L240.168 189.822V191.026H245.236V193H246.622V191.026H248.288V189.78H246.622V183.2H244.41ZM245.068 184.432H245.236V189.78H241.638L245.068 184.432ZM249.333 195.8H250.649V191.95H250.789C251.181 192.58 251.895 193.196 253.239 193.196C254.989 193.196 256.445 191.796 256.445 189.57C256.445 187.344 254.989 185.93 253.239 185.93C251.895 185.93 251.181 186.546 250.761 187.232H250.621V186.126H249.333V195.8ZM252.889 192.048C251.573 192.048 250.635 191.11 250.635 189.57C250.635 188.016 251.573 187.078 252.889 187.078C254.191 187.078 255.115 188.002 255.115 189.57C255.115 191.124 254.191 192.048 252.889 192.048ZM257.891 186.126V193H259.207V188.856C259.207 187.722 259.837 187.092 260.775 187.092C261.657 187.092 262.161 187.61 262.161 188.478V193H263.477V188.856C263.477 187.722 264.107 187.092 265.045 187.092C265.927 187.092 266.445 187.61 266.445 188.478V193H267.747V188.394C267.747 186.868 266.767 186 265.437 186C264.331 186 263.715 186.49 263.351 187.19H263.211C262.903 186.504 262.287 186 261.237 186C260.215 186 259.627 186.434 259.319 187.008H259.179V186.126H257.891Z" fill="#192135"/>
</g>
<g opacity="0.6">
<path d="M306.602 185.65C306.602 186.91 307.47 187.554 308.268 187.848V188.016C307.484 188.198 306.434 188.954 306.434 190.382C306.434 192.062 307.918 193.196 310.018 193.196C312.132 193.196 313.602 192.062 313.602 190.382C313.602 188.954 312.566 188.198 311.782 188.016V187.848C312.58 187.554 313.448 186.91 313.448 185.65C313.448 184.124 312.09 183.004 310.018 183.004C307.96 183.004 306.602 184.124 306.602 185.65ZM307.988 185.79C307.988 184.796 308.842 184.236 310.018 184.236C311.208 184.236 312.062 184.796 312.062 185.79C312.062 186.77 311.208 187.344 310.018 187.344C308.842 187.344 307.988 186.77 307.988 185.79ZM307.82 190.27C307.82 189.192 308.688 188.576 310.018 188.576C311.362 188.576 312.23 189.192 312.23 190.27C312.23 191.334 311.362 191.964 310.018 191.964C308.688 191.964 307.82 191.334 307.82 190.27ZM314.991 195.8H316.307V191.95H316.447C316.839 192.58 317.553 193.196 318.897 193.196C320.647 193.196 322.103 191.796 322.103 189.57C322.103 187.344 320.647 185.93 318.897 185.93C317.553 185.93 316.839 186.546 316.419 187.232H316.279V186.126H314.991V195.8ZM318.547 192.048C317.231 192.048 316.293 191.11 316.293 189.57C316.293 188.016 317.231 187.078 318.547 187.078C319.849 187.078 320.773 188.002 320.773 189.57C320.773 191.124 319.849 192.048 318.547 192.048ZM323.549 186.126V193H324.865V188.856C324.865 187.722 325.495 187.092 326.433 187.092C327.315 187.092 327.819 187.61 327.819 188.478V193H329.135V188.856C329.135 187.722 329.765 187.092 330.703 187.092C331.585 187.092 332.103 187.61 332.103 188.478V193H333.405V188.394C333.405 186.868 332.425 186 331.095 186C329.989 186 329.373 186.49 329.009 187.19H328.869C328.561 186.504 327.945 186 326.895 186C325.873 186 325.285 186.434 324.977 187.008H324.837V186.126H323.549Z" fill="#333B4F"/>
<path d="M306.602 185.65C306.602 186.91 307.47 187.554 308.268 187.848V188.016C307.484 188.198 306.434 188.954 306.434 190.382C306.434 192.062 307.918 193.196 310.018 193.196C312.132 193.196 313.602 192.062 313.602 190.382C313.602 188.954 312.566 188.198 311.782 188.016V187.848C312.58 187.554 313.448 186.91 313.448 185.65C313.448 184.124 312.09 183.004 310.018 183.004C307.96 183.004 306.602 184.124 306.602 185.65ZM307.988 185.79C307.988 184.796 308.842 184.236 310.018 184.236C311.208 184.236 312.062 184.796 312.062 185.79C312.062 186.77 311.208 187.344 310.018 187.344C308.842 187.344 307.988 186.77 307.988 185.79ZM307.82 190.27C307.82 189.192 308.688 188.576 310.018 188.576C311.362 188.576 312.23 189.192 312.23 190.27C312.23 191.334 311.362 191.964 310.018 191.964C308.688 191.964 307.82 191.334 307.82 190.27ZM314.991 195.8H316.307V191.95H316.447C316.839 192.58 317.553 193.196 318.897 193.196C320.647 193.196 322.103 191.796 322.103 189.57C322.103 187.344 320.647 185.93 318.897 185.93C317.553 185.93 316.839 186.546 316.419 187.232H316.279V186.126H314.991V195.8ZM318.547 192.048C317.231 192.048 316.293 191.11 316.293 189.57C316.293 188.016 317.231 187.078 318.547 187.078C319.849 187.078 320.773 188.002 320.773 189.57C320.773 191.124 319.849 192.048 318.547 192.048ZM323.549 186.126V193H324.865V188.856C324.865 187.722 325.495 187.092 326.433 187.092C327.315 187.092 327.819 187.61 327.819 188.478V193H329.135V188.856C329.135 187.722 329.765 187.092 330.703 187.092C331.585 187.092 332.103 187.61 332.103 188.478V193H333.405V188.394C333.405 186.868 332.425 186 331.095 186C329.989 186 329.373 186.49 329.009 187.19H328.869C328.561 186.504 327.945 186 326.895 186C325.873 186 325.285 186.434 324.977 187.008H324.837V186.126H323.549Z" fill="#192135"/>
</g>
<g opacity="0.6">
<path d="M376.41 183.2L372.168 189.822V191.026H377.236V193H378.622V191.026H380.288V189.78H378.622V183.2H376.41ZM377.068 184.432H377.236V189.78H373.638L377.068 184.432ZM381.165 187.974L382.397 188.366C382.565 187.582 383.125 187.008 384.161 187.008C385.211 187.008 385.729 187.596 385.729 188.45V188.898H383.545C382.047 188.898 380.941 189.612 380.941 191.026C380.941 192.412 382.047 193.196 383.475 193.196C384.805 193.196 385.337 192.538 385.589 192.076H385.757V193H387.017V188.534C387.017 186.882 385.939 185.93 384.175 185.93C382.425 185.93 381.501 186.854 381.165 187.974ZM382.257 190.998C382.257 190.326 382.803 189.962 383.615 189.962H385.729V190.102C385.729 191.348 384.903 192.118 383.699 192.118C382.803 192.118 382.257 191.67 382.257 190.998ZM388.811 186.126V193H390.127V188.856C390.127 187.722 390.757 187.092 391.695 187.092C392.577 187.092 393.081 187.61 393.081 188.478V193H394.397V188.856C394.397 187.722 395.027 187.092 395.965 187.092C396.847 187.092 397.365 187.61 397.365 188.478V193H398.667V188.394C398.667 186.868 397.687 186 396.357 186C395.251 186 394.635 186.49 394.271 187.19H394.131C393.823 186.504 393.207 186 392.157 186C391.135 186 390.547 186.434 390.239 187.008H390.099V186.126H388.811Z" fill="#333B4F"/>
<path d="M376.41 183.2L372.168 189.822V191.026H377.236V193H378.622V191.026H380.288V189.78H378.622V183.2H376.41ZM377.068 184.432H377.236V189.78H373.638L377.068 184.432ZM381.165 187.974L382.397 188.366C382.565 187.582 383.125 187.008 384.161 187.008C385.211 187.008 385.729 187.596 385.729 188.45V188.898H383.545C382.047 188.898 380.941 189.612 380.941 191.026C380.941 192.412 382.047 193.196 383.475 193.196C384.805 193.196 385.337 192.538 385.589 192.076H385.757V193H387.017V188.534C387.017 186.882 385.939 185.93 384.175 185.93C382.425 185.93 381.501 186.854 381.165 187.974ZM382.257 190.998C382.257 190.326 382.803 189.962 383.615 189.962H385.729V190.102C385.729 191.348 384.903 192.118 383.699 192.118C382.803 192.118 382.257 191.67 382.257 190.998ZM388.811 186.126V193H390.127V188.856C390.127 187.722 390.757 187.092 391.695 187.092C392.577 187.092 393.081 187.61 393.081 188.478V193H394.397V188.856C394.397 187.722 395.027 187.092 395.965 187.092C396.847 187.092 397.365 187.61 397.365 188.478V193H398.667V188.394C398.667 186.868 397.687 186 396.357 186C395.251 186 394.635 186.49 394.271 187.19H394.131C393.823 186.504 393.207 186 392.157 186C391.135 186 390.547 186.434 390.239 187.008H390.099V186.126H388.811Z" fill="#192135"/>
</g>
<g opacity="0.6">
<path d="M437.602 185.65C437.602 186.91 438.47 187.554 439.268 187.848V188.016C438.484 188.198 437.434 188.954 437.434 190.382C437.434 192.062 438.918 193.196 441.018 193.196C443.132 193.196 444.602 192.062 444.602 190.382C444.602 188.954 443.566 188.198 442.782 188.016V187.848C443.58 187.554 444.448 186.91 444.448 185.65C444.448 184.124 443.09 183.004 441.018 183.004C438.96 183.004 437.602 184.124 437.602 185.65ZM438.988 185.79C438.988 184.796 439.842 184.236 441.018 184.236C442.208 184.236 443.062 184.796 443.062 185.79C443.062 186.77 442.208 187.344 441.018 187.344C439.842 187.344 438.988 186.77 438.988 185.79ZM438.82 190.27C438.82 189.192 439.688 188.576 441.018 188.576C442.362 188.576 443.23 189.192 443.23 190.27C443.23 191.334 442.362 191.964 441.018 191.964C439.688 191.964 438.82 191.334 438.82 190.27ZM445.823 187.974L447.055 188.366C447.223 187.582 447.783 187.008 448.819 187.008C449.869 187.008 450.387 187.596 450.387 188.45V188.898H448.203C446.705 188.898 445.599 189.612 445.599 191.026C445.599 192.412 446.705 193.196 448.133 193.196C449.463 193.196 449.995 192.538 450.247 192.076H450.415V193H451.675V188.534C451.675 186.882 450.597 185.93 448.833 185.93C447.083 185.93 446.159 186.854 445.823 187.974ZM446.915 190.998C446.915 190.326 447.461 189.962 448.273 189.962H450.387V190.102C450.387 191.348 449.561 192.118 448.357 192.118C447.461 192.118 446.915 191.67 446.915 190.998ZM453.469 186.126V193H454.785V188.856C454.785 187.722 455.415 187.092 456.353 187.092C457.235 187.092 457.739 187.61 457.739 188.478V193H459.055V188.856C459.055 187.722 459.685 187.092 460.623 187.092C461.505 187.092 462.023 187.61 462.023 188.478V193H463.325V188.394C463.325 186.868 462.345 186 461.015 186C459.909 186 459.293 186.49 458.929 187.19H458.789C458.481 186.504 457.865 186 456.815 186C455.793 186 455.205 186.434 454.897 187.008H454.757V186.126H453.469Z" fill="#333B4F"/>
<path d="M437.602 185.65C437.602 186.91 438.47 187.554 439.268 187.848V188.016C438.484 188.198 437.434 188.954 437.434 190.382C437.434 192.062 438.918 193.196 441.018 193.196C443.132 193.196 444.602 192.062 444.602 190.382C444.602 188.954 443.566 188.198 442.782 188.016V187.848C443.58 187.554 444.448 186.91 444.448 185.65C444.448 184.124 443.09 183.004 441.018 183.004C438.96 183.004 437.602 184.124 437.602 185.65ZM438.988 185.79C438.988 184.796 439.842 184.236 441.018 184.236C442.208 184.236 443.062 184.796 443.062 185.79C443.062 186.77 442.208 187.344 441.018 187.344C439.842 187.344 438.988 186.77 438.988 185.79ZM438.82 190.27C438.82 189.192 439.688 188.576 441.018 188.576C442.362 188.576 443.23 189.192 443.23 190.27C443.23 191.334 442.362 191.964 441.018 191.964C439.688 191.964 438.82 191.334 438.82 190.27ZM445.823 187.974L447.055 188.366C447.223 187.582 447.783 187.008 448.819 187.008C449.869 187.008 450.387 187.596 450.387 188.45V188.898H448.203C446.705 188.898 445.599 189.612 445.599 191.026C445.599 192.412 446.705 193.196 448.133 193.196C449.463 193.196 449.995 192.538 450.247 192.076H450.415V193H451.675V188.534C451.675 186.882 450.597 185.93 448.833 185.93C447.083 185.93 446.159 186.854 445.823 187.974ZM446.915 190.998C446.915 190.326 447.461 189.962 448.273 189.962H450.387V190.102C450.387 191.348 449.561 192.118 448.357 192.118C447.461 192.118 446.915 191.67 446.915 190.998ZM453.469 186.126V193H454.785V188.856C454.785 187.722 455.415 187.092 456.353 187.092C457.235 187.092 457.739 187.61 457.739 188.478V193H459.055V188.856C459.055 187.722 459.685 187.092 460.623 187.092C461.505 187.092 462.023 187.61 462.023 188.478V193H463.325V188.394C463.325 186.868 462.345 186 461.015 186C459.909 186 459.293 186.49 458.929 187.19H458.789C458.481 186.504 457.865 186 456.815 186C455.793 186 455.205 186.434 454.897 187.008H454.757V186.126H453.469Z" fill="#192135"/>
</g>
<g opacity="0.6">
<path d="M504.73 183.2L502.056 187.498H503.568L505.304 184.684H505.472V193H506.858L506.872 183.2H504.73ZM508.37 186.42V186.756H509.756V186.462C509.756 184.978 510.708 184.236 511.968 184.236C513.2 184.236 514.026 184.95 514.026 186.168C514.026 187.428 513.102 188.03 511.562 188.422C509.672 188.912 508.37 189.71 508.37 191.642V193H515.398V191.754H509.77V191.502C509.77 190.242 510.638 189.92 512.22 189.514C514.236 188.996 515.412 188.058 515.412 186.196C515.412 184.236 513.886 183.004 511.954 183.004C509.98 183.004 508.37 184.208 508.37 186.42ZM516.829 195.8H518.145V191.95H518.285C518.677 192.58 519.391 193.196 520.735 193.196C522.485 193.196 523.941 191.796 523.941 189.57C523.941 187.344 522.485 185.93 520.735 185.93C519.391 185.93 518.677 186.546 518.257 187.232H518.117V186.126H516.829V195.8ZM520.385 192.048C519.069 192.048 518.131 191.11 518.131 189.57C518.131 188.016 519.069 187.078 520.385 187.078C521.687 187.078 522.611 188.002 522.611 189.57C522.611 191.124 521.687 192.048 520.385 192.048ZM525.387 186.126V193H526.703V188.856C526.703 187.722 527.333 187.092 528.271 187.092C529.153 187.092 529.657 187.61 529.657 188.478V193H530.973V188.856C530.973 187.722 531.603 187.092 532.541 187.092C533.423 187.092 533.941 187.61 533.941 188.478V193H535.243V188.394C535.243 186.868 534.263 186 532.933 186C531.827 186 531.211 186.49 530.847 187.19H530.707C530.399 186.504 529.783 186 528.733 186C527.711 186 527.123 186.434 526.815 187.008H526.675V186.126H525.387Z" fill="#333B4F"/>
<path d="M504.73 183.2L502.056 187.498H503.568L505.304 184.684H505.472V193H506.858L506.872 183.2H504.73ZM508.37 186.42V186.756H509.756V186.462C509.756 184.978 510.708 184.236 511.968 184.236C513.2 184.236 514.026 184.95 514.026 186.168C514.026 187.428 513.102 188.03 511.562 188.422C509.672 188.912 508.37 189.71 508.37 191.642V193H515.398V191.754H509.77V191.502C509.77 190.242 510.638 189.92 512.22 189.514C514.236 188.996 515.412 188.058 515.412 186.196C515.412 184.236 513.886 183.004 511.954 183.004C509.98 183.004 508.37 184.208 508.37 186.42ZM516.829 195.8H518.145V191.95H518.285C518.677 192.58 519.391 193.196 520.735 193.196C522.485 193.196 523.941 191.796 523.941 189.57C523.941 187.344 522.485 185.93 520.735 185.93C519.391 185.93 518.677 186.546 518.257 187.232H518.117V186.126H516.829V195.8ZM520.385 192.048C519.069 192.048 518.131 191.11 518.131 189.57C518.131 188.016 519.069 187.078 520.385 187.078C521.687 187.078 522.611 188.002 522.611 189.57C522.611 191.124 521.687 192.048 520.385 192.048ZM525.387 186.126V193H526.703V188.856C526.703 187.722 527.333 187.092 528.271 187.092C529.153 187.092 529.657 187.61 529.657 188.478V193H530.973V188.856C530.973 187.722 531.603 187.092 532.541 187.092C533.423 187.092 533.941 187.61 533.941 188.478V193H535.243V188.394C535.243 186.868 534.263 186 532.933 186C531.827 186 531.211 186.49 530.847 187.19H530.707C530.399 186.504 529.783 186 528.733 186C527.711 186 527.123 186.434 526.815 187.008H526.675V186.126H525.387Z" fill="#192135"/>
</g>
<g opacity="0.6">
<path d="M578.41 183.2L574.168 189.822V191.026H579.236V193H580.622V191.026H582.288V189.78H580.622V183.2H578.41ZM579.068 184.432H579.236V189.78H575.638L579.068 184.432ZM583.333 195.8H584.649V191.95H584.789C585.181 192.58 585.895 193.196 587.239 193.196C588.989 193.196 590.445 191.796 590.445 189.57C590.445 187.344 588.989 185.93 587.239 185.93C585.895 185.93 585.181 186.546 584.761 187.232H584.621V186.126H583.333V195.8ZM586.889 192.048C585.573 192.048 584.635 191.11 584.635 189.57C584.635 188.016 585.573 187.078 586.889 187.078C588.191 187.078 589.115 188.002 589.115 189.57C589.115 191.124 588.191 192.048 586.889 192.048ZM591.891 186.126V193H593.207V188.856C593.207 187.722 593.837 187.092 594.775 187.092C595.657 187.092 596.161 187.61 596.161 188.478V193H597.477V188.856C597.477 187.722 598.107 187.092 599.045 187.092C599.927 187.092 600.445 187.61 600.445 188.478V193H601.747V188.394C601.747 186.868 600.767 186 599.437 186C598.331 186 597.715 186.49 597.351 187.19H597.211C596.903 186.504 596.287 186 595.237 186C594.215 186 593.627 186.434 593.319 187.008H593.179V186.126H591.891Z" fill="#333B4F"/>
<path d="M578.41 183.2L574.168 189.822V191.026H579.236V193H580.622V191.026H582.288V189.78H580.622V183.2H578.41ZM579.068 184.432H579.236V189.78H575.638L579.068 184.432ZM583.333 195.8H584.649V191.95H584.789C585.181 192.58 585.895 193.196 587.239 193.196C588.989 193.196 590.445 191.796 590.445 189.57C590.445 187.344 588.989 185.93 587.239 185.93C585.895 185.93 585.181 186.546 584.761 187.232H584.621V186.126H583.333V195.8ZM586.889 192.048C585.573 192.048 584.635 191.11 584.635 189.57C584.635 188.016 585.573 187.078 586.889 187.078C588.191 187.078 589.115 188.002 589.115 189.57C589.115 191.124 588.191 192.048 586.889 192.048ZM591.891 186.126V193H593.207V188.856C593.207 187.722 593.837 187.092 594.775 187.092C595.657 187.092 596.161 187.61 596.161 188.478V193H597.477V188.856C597.477 187.722 598.107 187.092 599.045 187.092C599.927 187.092 600.445 187.61 600.445 188.478V193H601.747V188.394C601.747 186.868 600.767 186 599.437 186C598.331 186 597.715 186.49 597.351 187.19H597.211C596.903 186.504 596.287 186 595.237 186C594.215 186 593.627 186.434 593.319 187.008H593.179V186.126H591.891Z" fill="#192135"/>
</g>
<g opacity="0.6">
<path d="M640.602 185.65C640.602 186.91 641.47 187.554 642.268 187.848V188.016C641.484 188.198 640.434 188.954 640.434 190.382C640.434 192.062 641.918 193.196 644.018 193.196C646.132 193.196 647.602 192.062 647.602 190.382C647.602 188.954 646.566 188.198 645.782 188.016V187.848C646.58 187.554 647.448 186.91 647.448 185.65C647.448 184.124 646.09 183.004 644.018 183.004C641.96 183.004 640.602 184.124 640.602 185.65ZM641.988 185.79C641.988 184.796 642.842 184.236 644.018 184.236C645.208 184.236 646.062 184.796 646.062 185.79C646.062 186.77 645.208 187.344 644.018 187.344C642.842 187.344 641.988 186.77 641.988 185.79ZM641.82 190.27C641.82 189.192 642.688 188.576 644.018 188.576C645.362 188.576 646.23 189.192 646.23 190.27C646.23 191.334 645.362 191.964 644.018 191.964C642.688 191.964 641.82 191.334 641.82 190.27ZM648.991 195.8H650.307V191.95H650.447C650.839 192.58 651.553 193.196 652.897 193.196C654.647 193.196 656.103 191.796 656.103 189.57C656.103 187.344 654.647 185.93 652.897 185.93C651.553 185.93 650.839 186.546 650.419 187.232H650.279V186.126H648.991V195.8ZM652.547 192.048C651.231 192.048 650.293 191.11 650.293 189.57C650.293 188.016 651.231 187.078 652.547 187.078C653.849 187.078 654.773 188.002 654.773 189.57C654.773 191.124 653.849 192.048 652.547 192.048ZM657.549 186.126V193H658.865V188.856C658.865 187.722 659.495 187.092 660.433 187.092C661.315 187.092 661.819 187.61 661.819 188.478V193H663.135V188.856C663.135 187.722 663.765 187.092 664.703 187.092C665.585 187.092 666.103 187.61 666.103 188.478V193H667.405V188.394C667.405 186.868 666.425 186 665.095 186C663.989 186 663.373 186.49 663.009 187.19H662.869C662.561 186.504 661.945 186 660.895 186C659.873 186 659.285 186.434 658.977 187.008H658.837V186.126H657.549Z" fill="#333B4F"/>
<path d="M640.602 185.65C640.602 186.91 641.47 187.554 642.268 187.848V188.016C641.484 188.198 640.434 188.954 640.434 190.382C640.434 192.062 641.918 193.196 644.018 193.196C646.132 193.196 647.602 192.062 647.602 190.382C647.602 188.954 646.566 188.198 645.782 188.016V187.848C646.58 187.554 647.448 186.91 647.448 185.65C647.448 184.124 646.09 183.004 644.018 183.004C641.96 183.004 640.602 184.124 640.602 185.65ZM641.988 185.79C641.988 184.796 642.842 184.236 644.018 184.236C645.208 184.236 646.062 184.796 646.062 185.79C646.062 186.77 645.208 187.344 644.018 187.344C642.842 187.344 641.988 186.77 641.988 185.79ZM641.82 190.27C641.82 189.192 642.688 188.576 644.018 188.576C645.362 188.576 646.23 189.192 646.23 190.27C646.23 191.334 645.362 191.964 644.018 191.964C642.688 191.964 641.82 191.334 641.82 190.27ZM648.991 195.8H650.307V191.95H650.447C650.839 192.58 651.553 193.196 652.897 193.196C654.647 193.196 656.103 191.796 656.103 189.57C656.103 187.344 654.647 185.93 652.897 185.93C651.553 185.93 650.839 186.546 650.419 187.232H650.279V186.126H648.991V195.8ZM652.547 192.048C651.231 192.048 650.293 191.11 650.293 189.57C650.293 188.016 651.231 187.078 652.547 187.078C653.849 187.078 654.773 188.002 654.773 189.57C654.773 191.124 653.849 192.048 652.547 192.048ZM657.549 186.126V193H658.865V188.856C658.865 187.722 659.495 187.092 660.433 187.092C661.315 187.092 661.819 187.61 661.819 188.478V193H663.135V188.856C663.135 187.722 663.765 187.092 664.703 187.092C665.585 187.092 666.103 187.61 666.103 188.478V193H667.405V188.394C667.405 186.868 666.425 186 665.095 186C663.989 186 663.373 186.49 663.009 187.19H662.869C662.561 186.504 661.945 186 660.895 186C659.873 186 659.285 186.434 658.977 187.008H658.837V186.126H657.549Z" fill="#192135"/>
</g>
<g opacity="0.6">
<path d="M710.41 183.2L706.168 189.822V191.026H711.236V193H712.622V191.026H714.288V189.78H712.622V183.2H710.41ZM711.068 184.432H711.236V189.78H707.638L711.068 184.432ZM715.165 187.974L716.397 188.366C716.565 187.582 717.125 187.008 718.161 187.008C719.211 187.008 719.729 187.596 719.729 188.45V188.898H717.545C716.047 188.898 714.941 189.612 714.941 191.026C714.941 192.412 716.047 193.196 717.475 193.196C718.805 193.196 719.337 192.538 719.589 192.076H719.757V193H721.017V188.534C721.017 186.882 719.939 185.93 718.175 185.93C716.425 185.93 715.501 186.854 715.165 187.974ZM716.257 190.998C716.257 190.326 716.803 189.962 717.615 189.962H719.729V190.102C719.729 191.348 718.903 192.118 717.699 192.118C716.803 192.118 716.257 191.67 716.257 190.998ZM722.811 186.126V193H724.127V188.856C724.127 187.722 724.757 187.092 725.695 187.092C726.577 187.092 727.081 187.61 727.081 188.478V193H728.397V188.856C728.397 187.722 729.027 187.092 729.965 187.092C730.847 187.092 731.365 187.61 731.365 188.478V193H732.667V188.394C732.667 186.868 731.687 186 730.357 186C729.251 186 728.635 186.49 728.271 187.19H728.131C727.823 186.504 727.207 186 726.157 186C725.135 186 724.547 186.434 724.239 187.008H724.099V186.126H722.811Z" fill="#333B4F"/>
<path d="M710.41 183.2L706.168 189.822V191.026H711.236V193H712.622V191.026H714.288V189.78H712.622V183.2H710.41ZM711.068 184.432H711.236V189.78H707.638L711.068 184.432ZM715.165 187.974L716.397 188.366C716.565 187.582 717.125 187.008 718.161 187.008C719.211 187.008 719.729 187.596 719.729 188.45V188.898H717.545C716.047 188.898 714.941 189.612 714.941 191.026C714.941 192.412 716.047 193.196 717.475 193.196C718.805 193.196 719.337 192.538 719.589 192.076H719.757V193H721.017V188.534C721.017 186.882 719.939 185.93 718.175 185.93C716.425 185.93 715.501 186.854 715.165 187.974ZM716.257 190.998C716.257 190.326 716.803 189.962 717.615 189.962H719.729V190.102C719.729 191.348 718.903 192.118 717.699 192.118C716.803 192.118 716.257 191.67 716.257 190.998ZM722.811 186.126V193H724.127V188.856C724.127 187.722 724.757 187.092 725.695 187.092C726.577 187.092 727.081 187.61 727.081 188.478V193H728.397V188.856C728.397 187.722 729.027 187.092 729.965 187.092C730.847 187.092 731.365 187.61 731.365 188.478V193H732.667V188.394C732.667 186.868 731.687 186 730.357 186C729.251 186 728.635 186.49 728.271 187.19H728.131C727.823 186.504 727.207 186 726.157 186C725.135 186 724.547 186.434 724.239 187.008H724.099V186.126H722.811Z" fill="#192135"/>
</g>
<g opacity="0.6">
<path d="M771.602 185.65C771.602 186.91 772.47 187.554 773.268 187.848V188.016C772.484 188.198 771.434 188.954 771.434 190.382C771.434 192.062 772.918 193.196 775.018 193.196C777.132 193.196 778.602 192.062 778.602 190.382C778.602 188.954 777.566 188.198 776.782 188.016V187.848C777.58 187.554 778.448 186.91 778.448 185.65C778.448 184.124 777.09 183.004 775.018 183.004C772.96 183.004 771.602 184.124 771.602 185.65ZM772.988 185.79C772.988 184.796 773.842 184.236 775.018 184.236C776.208 184.236 777.062 184.796 777.062 185.79C777.062 186.77 776.208 187.344 775.018 187.344C773.842 187.344 772.988 186.77 772.988 185.79ZM772.82 190.27C772.82 189.192 773.688 188.576 775.018 188.576C776.362 188.576 777.23 189.192 777.23 190.27C777.23 191.334 776.362 191.964 775.018 191.964C773.688 191.964 772.82 191.334 772.82 190.27ZM779.823 187.974L781.055 188.366C781.223 187.582 781.783 187.008 782.819 187.008C783.869 187.008 784.387 187.596 784.387 188.45V188.898H782.203C780.705 188.898 779.599 189.612 779.599 191.026C779.599 192.412 780.705 193.196 782.133 193.196C783.463 193.196 783.995 192.538 784.247 192.076H784.415V193H785.675V188.534C785.675 186.882 784.597 185.93 782.833 185.93C781.083 185.93 780.159 186.854 779.823 187.974ZM780.915 190.998C780.915 190.326 781.461 189.962 782.273 189.962H784.387V190.102C784.387 191.348 783.561 192.118 782.357 192.118C781.461 192.118 780.915 191.67 780.915 190.998ZM787.469 186.126V193H788.785V188.856C788.785 187.722 789.415 187.092 790.353 187.092C791.235 187.092 791.739 187.61 791.739 188.478V193H793.055V188.856C793.055 187.722 793.685 187.092 794.623 187.092C795.505 187.092 796.023 187.61 796.023 188.478V193H797.325V188.394C797.325 186.868 796.345 186 795.015 186C793.909 186 793.293 186.49 792.929 187.19H792.789C792.481 186.504 791.865 186 790.815 186C789.793 186 789.205 186.434 788.897 187.008H788.757V186.126H787.469Z" fill="#333B4F"/>
<path d="M771.602 185.65C771.602 186.91 772.47 187.554 773.268 187.848V188.016C772.484 188.198 771.434 188.954 771.434 190.382C771.434 192.062 772.918 193.196 775.018 193.196C777.132 193.196 778.602 192.062 778.602 190.382C778.602 188.954 777.566 188.198 776.782 188.016V187.848C777.58 187.554 778.448 186.91 778.448 185.65C778.448 184.124 777.09 183.004 775.018 183.004C772.96 183.004 771.602 184.124 771.602 185.65ZM772.988 185.79C772.988 184.796 773.842 184.236 775.018 184.236C776.208 184.236 777.062 184.796 777.062 185.79C777.062 186.77 776.208 187.344 775.018 187.344C773.842 187.344 772.988 186.77 772.988 185.79ZM772.82 190.27C772.82 189.192 773.688 188.576 775.018 188.576C776.362 188.576 777.23 189.192 777.23 190.27C777.23 191.334 776.362 191.964 775.018 191.964C773.688 191.964 772.82 191.334 772.82 190.27ZM779.823 187.974L781.055 188.366C781.223 187.582 781.783 187.008 782.819 187.008C783.869 187.008 784.387 187.596 784.387 188.45V188.898H782.203C780.705 188.898 779.599 189.612 779.599 191.026C779.599 192.412 780.705 193.196 782.133 193.196C783.463 193.196 783.995 192.538 784.247 192.076H784.415V193H785.675V188.534C785.675 186.882 784.597 185.93 782.833 185.93C781.083 185.93 780.159 186.854 779.823 187.974ZM780.915 190.998C780.915 190.326 781.461 189.962 782.273 189.962H784.387V190.102C784.387 191.348 783.561 192.118 782.357 192.118C781.461 192.118 780.915 191.67 780.915 190.998ZM787.469 186.126V193H788.785V188.856C788.785 187.722 789.415 187.092 790.353 187.092C791.235 187.092 791.739 187.61 791.739 188.478V193H793.055V188.856C793.055 187.722 793.685 187.092 794.623 187.092C795.505 187.092 796.023 187.61 796.023 188.478V193H797.325V188.394C797.325 186.868 796.345 186 795.015 186C793.909 186 793.293 186.49 792.929 187.19H792.789C792.481 186.504 791.865 186 790.815 186C789.793 186 789.205 186.434 788.897 187.008H788.757V186.126H787.469Z" fill="#192135"/>
</g>
<g opacity="0.6">
<path d="M838.73 183.2L836.056 187.498H837.568L839.304 184.684H839.472V193H840.858L840.872 183.2H838.73ZM842.37 186.42V186.756H843.756V186.462C843.756 184.978 844.708 184.236 845.968 184.236C847.2 184.236 848.026 184.95 848.026 186.168C848.026 187.428 847.102 188.03 845.562 188.422C843.672 188.912 842.37 189.71 842.37 191.642V193H849.398V191.754H843.77V191.502C843.77 190.242 844.638 189.92 846.22 189.514C848.236 188.996 849.412 188.058 849.412 186.196C849.412 184.236 847.886 183.004 845.954 183.004C843.98 183.004 842.37 184.208 842.37 186.42ZM850.829 195.8H852.145V191.95H852.285C852.677 192.58 853.391 193.196 854.735 193.196C856.485 193.196 857.941 191.796 857.941 189.57C857.941 187.344 856.485 185.93 854.735 185.93C853.391 185.93 852.677 186.546 852.257 187.232H852.117V186.126H850.829V195.8ZM854.385 192.048C853.069 192.048 852.131 191.11 852.131 189.57C852.131 188.016 853.069 187.078 854.385 187.078C855.687 187.078 856.611 188.002 856.611 189.57C856.611 191.124 855.687 192.048 854.385 192.048ZM859.387 186.126V193H860.703V188.856C860.703 187.722 861.333 187.092 862.271 187.092C863.153 187.092 863.657 187.61 863.657 188.478V193H864.973V188.856C864.973 187.722 865.603 187.092 866.541 187.092C867.423 187.092 867.941 187.61 867.941 188.478V193H869.243V188.394C869.243 186.868 868.263 186 866.933 186C865.827 186 865.211 186.49 864.847 187.19H864.707C864.399 186.504 863.783 186 862.733 186C861.711 186 861.123 186.434 860.815 187.008H860.675V186.126H859.387Z" fill="#333B4F"/>
<path d="M838.73 183.2L836.056 187.498H837.568L839.304 184.684H839.472V193H840.858L840.872 183.2H838.73ZM842.37 186.42V186.756H843.756V186.462C843.756 184.978 844.708 184.236 845.968 184.236C847.2 184.236 848.026 184.95 848.026 186.168C848.026 187.428 847.102 188.03 845.562 188.422C843.672 188.912 842.37 189.71 842.37 191.642V193H849.398V191.754H843.77V191.502C843.77 190.242 844.638 189.92 846.22 189.514C848.236 188.996 849.412 188.058 849.412 186.196C849.412 184.236 847.886 183.004 845.954 183.004C843.98 183.004 842.37 184.208 842.37 186.42ZM850.829 195.8H852.145V191.95H852.285C852.677 192.58 853.391 193.196 854.735 193.196C856.485 193.196 857.941 191.796 857.941 189.57C857.941 187.344 856.485 185.93 854.735 185.93C853.391 185.93 852.677 186.546 852.257 187.232H852.117V186.126H850.829V195.8ZM854.385 192.048C853.069 192.048 852.131 191.11 852.131 189.57C852.131 188.016 853.069 187.078 854.385 187.078C855.687 187.078 856.611 188.002 856.611 189.57C856.611 191.124 855.687 192.048 854.385 192.048ZM859.387 186.126V193H860.703V188.856C860.703 187.722 861.333 187.092 862.271 187.092C863.153 187.092 863.657 187.61 863.657 188.478V193H864.973V188.856C864.973 187.722 865.603 187.092 866.541 187.092C867.423 187.092 867.941 187.61 867.941 188.478V193H869.243V188.394C869.243 186.868 868.263 186 866.933 186C865.827 186 865.211 186.49 864.847 187.19H864.707C864.399 186.504 863.783 186 862.733 186C861.711 186 861.123 186.434 860.815 187.008H860.675V186.126H859.387Z" fill="#192135"/>
</g>
<g opacity="0.6">
<path d="M912.41 183.2L908.168 189.822V191.026H913.236V193H914.622V191.026H916.288V189.78H914.622V183.2H912.41ZM913.068 184.432H913.236V189.78H909.638L913.068 184.432ZM917.333 195.8H918.649V191.95H918.789C919.181 192.58 919.895 193.196 921.239 193.196C922.989 193.196 924.445 191.796 924.445 189.57C924.445 187.344 922.989 185.93 921.239 185.93C919.895 185.93 919.181 186.546 918.761 187.232H918.621V186.126H917.333V195.8ZM920.889 192.048C919.573 192.048 918.635 191.11 918.635 189.57C918.635 188.016 919.573 187.078 920.889 187.078C922.191 187.078 923.115 188.002 923.115 189.57C923.115 191.124 922.191 192.048 920.889 192.048ZM925.891 186.126V193H927.207V188.856C927.207 187.722 927.837 187.092 928.775 187.092C929.657 187.092 930.161 187.61 930.161 188.478V193H931.477V188.856C931.477 187.722 932.107 187.092 933.045 187.092C933.927 187.092 934.445 187.61 934.445 188.478V193H935.747V188.394C935.747 186.868 934.767 186 933.437 186C932.331 186 931.715 186.49 931.351 187.19H931.211C930.903 186.504 930.287 186 929.237 186C928.215 186 927.627 186.434 927.319 187.008H927.179V186.126H925.891Z" fill="#333B4F"/>
<path d="M912.41 183.2L908.168 189.822V191.026H913.236V193H914.622V191.026H916.288V189.78H914.622V183.2H912.41ZM913.068 184.432H913.236V189.78H909.638L913.068 184.432ZM917.333 195.8H918.649V191.95H918.789C919.181 192.58 919.895 193.196 921.239 193.196C922.989 193.196 924.445 191.796 924.445 189.57C924.445 187.344 922.989 185.93 921.239 185.93C919.895 185.93 919.181 186.546 918.761 187.232H918.621V186.126H917.333V195.8ZM920.889 192.048C919.573 192.048 918.635 191.11 918.635 189.57C918.635 188.016 919.573 187.078 920.889 187.078C922.191 187.078 923.115 188.002 923.115 189.57C923.115 191.124 922.191 192.048 920.889 192.048ZM925.891 186.126V193H927.207V188.856C927.207 187.722 927.837 187.092 928.775 187.092C929.657 187.092 930.161 187.61 930.161 188.478V193H931.477V188.856C931.477 187.722 932.107 187.092 933.045 187.092C933.927 187.092 934.445 187.61 934.445 188.478V193H935.747V188.394C935.747 186.868 934.767 186 933.437 186C932.331 186 931.715 186.49 931.351 187.19H931.211C930.903 186.504 930.287 186 929.237 186C928.215 186 927.627 186.434 927.319 187.008H927.179V186.126H925.891Z" fill="#192135"/>
</g>
<g opacity="0.6">
<path d="M974.602 185.65C974.602 186.91 975.47 187.554 976.268 187.848V188.016C975.484 188.198 974.434 188.954 974.434 190.382C974.434 192.062 975.918 193.196 978.018 193.196C980.132 193.196 981.602 192.062 981.602 190.382C981.602 188.954 980.566 188.198 979.782 188.016V187.848C980.58 187.554 981.448 186.91 981.448 185.65C981.448 184.124 980.09 183.004 978.018 183.004C975.96 183.004 974.602 184.124 974.602 185.65ZM975.988 185.79C975.988 184.796 976.842 184.236 978.018 184.236C979.208 184.236 980.062 184.796 980.062 185.79C980.062 186.77 979.208 187.344 978.018 187.344C976.842 187.344 975.988 186.77 975.988 185.79ZM975.82 190.27C975.82 189.192 976.688 188.576 978.018 188.576C979.362 188.576 980.23 189.192 980.23 190.27C980.23 191.334 979.362 191.964 978.018 191.964C976.688 191.964 975.82 191.334 975.82 190.27ZM982.991 195.8H984.307V191.95H984.447C984.839 192.58 985.553 193.196 986.897 193.196C988.647 193.196 990.103 191.796 990.103 189.57C990.103 187.344 988.647 185.93 986.897 185.93C985.553 185.93 984.839 186.546 984.419 187.232H984.279V186.126H982.991V195.8ZM986.547 192.048C985.231 192.048 984.293 191.11 984.293 189.57C984.293 188.016 985.231 187.078 986.547 187.078C987.849 187.078 988.773 188.002 988.773 189.57C988.773 191.124 987.849 192.048 986.547 192.048ZM991.549 186.126V193H992.865V188.856C992.865 187.722 993.495 187.092 994.433 187.092C995.315 187.092 995.819 187.61 995.819 188.478V193H997.135V188.856C997.135 187.722 997.765 187.092 998.703 187.092C999.585 187.092 1000.1 187.61 1000.1 188.478V193H1001.41V188.394C1001.41 186.868 1000.43 186 999.095 186C997.989 186 997.373 186.49 997.009 187.19H996.869C996.561 186.504 995.945 186 994.895 186C993.873 186 993.285 186.434 992.977 187.008H992.837V186.126H991.549Z" fill="#333B4F"/>
<path d="M974.602 185.65C974.602 186.91 975.47 187.554 976.268 187.848V188.016C975.484 188.198 974.434 188.954 974.434 190.382C974.434 192.062 975.918 193.196 978.018 193.196C980.132 193.196 981.602 192.062 981.602 190.382C981.602 188.954 980.566 188.198 979.782 188.016V187.848C980.58 187.554 981.448 186.91 981.448 185.65C981.448 184.124 980.09 183.004 978.018 183.004C975.96 183.004 974.602 184.124 974.602 185.65ZM975.988 185.79C975.988 184.796 976.842 184.236 978.018 184.236C979.208 184.236 980.062 184.796 980.062 185.79C980.062 186.77 979.208 187.344 978.018 187.344C976.842 187.344 975.988 186.77 975.988 185.79ZM975.82 190.27C975.82 189.192 976.688 188.576 978.018 188.576C979.362 188.576 980.23 189.192 980.23 190.27C980.23 191.334 979.362 191.964 978.018 191.964C976.688 191.964 975.82 191.334 975.82 190.27ZM982.991 195.8H984.307V191.95H984.447C984.839 192.58 985.553 193.196 986.897 193.196C988.647 193.196 990.103 191.796 990.103 189.57C990.103 187.344 988.647 185.93 986.897 185.93C985.553 185.93 984.839 186.546 984.419 187.232H984.279V186.126H982.991V195.8ZM986.547 192.048C985.231 192.048 984.293 191.11 984.293 189.57C984.293 188.016 985.231 187.078 986.547 187.078C987.849 187.078 988.773 188.002 988.773 189.57C988.773 191.124 987.849 192.048 986.547 192.048ZM991.549 186.126V193H992.865V188.856C992.865 187.722 993.495 187.092 994.433 187.092C995.315 187.092 995.819 187.61 995.819 188.478V193H997.135V188.856C997.135 187.722 997.765 187.092 998.703 187.092C999.585 187.092 1000.1 187.61 1000.1 188.478V193H1001.41V188.394C1001.41 186.868 1000.43 186 999.095 186C997.989 186 997.373 186.49 997.009 187.19H996.869C996.561 186.504 995.945 186 994.895 186C993.873 186 993.285 186.434 992.977 187.008H992.837V186.126H991.549Z" fill="#192135"/>
</g>
<path d="M41 148.116C131.122 124.517 138.599 -38.0695 173.404 23.7215C181.244 37.6396 195.342 98.5321 232.637 98.5321C261.383 98.5321 257.353 67.2158 277.062 67.2158C289.258 67.2158 295.355 102.011 320.616 98.5321C331.879 96.9809 336.296 92.4421 343.265 80.2644C354.391 60.8201 344.144 44.3619 352.846 23.7215C366.784 -9.33416 386.323 49.2973 402.498 5.45384C408.595 -11.0746 412.08 23.7217 432.986 23.7215C466.098 23.7213 426.834 88.0145 457.544 98.5321C486.145 108.328 514.509 92.5478 526.563 64.5749C538.617 36.6019 544.061 40.9614 552.324 64.5749C560.586 88.1884 612.594 160.845 651.478 102.72C690.361 44.5942 858.826 82.7391 924.151 64.5749C989.476 46.4106 1003.21 43.686 1001.92 44.5942" stroke="#2BBF78" stroke-width="2"/>
<path d="M173.404 23.7215C138.599 -38.0695 131.122 124.517 41 148.116V189H552.324H1001.92V44.5942C1003.22 43.686 989.476 46.4106 924.151 64.5749C858.826 82.7391 690.361 44.5942 651.478 102.72C612.594 160.845 560.586 88.1884 552.324 64.5749C544.061 40.9614 538.617 36.6019 526.563 64.5749C514.509 92.5478 486.145 108.328 457.544 98.5321C426.834 88.0145 466.098 23.7213 432.986 23.7215C412.08 23.7217 408.595 -11.0746 402.498 5.45384C386.323 49.2973 366.784 -9.33416 352.846 23.7215C344.144 44.3619 354.391 60.8201 343.264 80.2644C336.296 92.4421 331.879 96.9809 320.616 98.5321C295.355 102.011 289.258 67.2158 277.062 67.2158C257.353 67.2158 261.383 98.5321 232.637 98.5321C195.342 98.5321 181.244 37.6396 173.404 23.7215Z" fill="url(#paint0_linear)"/>
<defs>
<linearGradient id="paint0_linear" x1="521.5" y1="1" x2="521.5" y2="189" gradientUnits="userSpaceOnUse">
<stop stop-color="#2BBF78" stop-opacity="0.46"/>
<stop offset="0.764418" stop-color="#2BBF78" stop-opacity="0"/>
</linearGradient>
</defs>
</svg>
