<svg width="40" height="22" viewBox="0 0 40 22" fill="none" xmlns="http://www.w3.org/2000/svg">
<path d="M36.0324 0H3.27712C3.04147 0 2.78226 0.0207743 2.54661 0.0623229C2.31096 0.103872 2.07531 0.166195 1.83966 0.270066C1.62757 0.353163 1.41549 0.498584 1.25053 0.644004C1.08558 0.789424 0.920624 0.976393 0.826364 1.16336C0.708539 1.35033 0.637844 1.55807 0.590714 1.78659C0.543584 1.99433 0.543584 2.22285 0.52002 2.43059V19.5694C0.52002 19.7771 0.543584 20.0057 0.590714 20.2134C0.637844 20.4212 0.708539 20.6289 0.826364 20.8366C0.944189 21.0236 1.08558 21.2106 1.25053 21.356C1.41549 21.5014 1.62757 21.6468 1.83966 21.7299C2.05174 21.8338 2.28739 21.8961 2.54661 21.9377C2.78226 21.9792 3.04147 21.9792 3.27712 22H36.7629C36.9986 22 37.2578 21.9792 37.4934 21.9377C37.7291 21.8961 37.9647 21.8338 38.2004 21.7299C38.4125 21.6261 38.6245 21.5014 38.7895 21.356C38.9545 21.2106 39.1194 21.0236 39.2137 20.8366C39.3315 20.6497 39.4022 20.4419 39.4493 20.2134C39.4965 20.0057 39.4965 19.7771 39.52 19.5694V19.2786V3.0746V2.72144V2.43059C39.52 2.22285 39.4965 1.99433 39.4493 1.78659C39.4022 1.57885 39.3315 1.3711 39.2137 1.16336C39.0958 0.976393 38.9545 0.789424 38.7895 0.644004C38.6245 0.498584 38.4125 0.353163 38.2004 0.270066C37.9883 0.166195 37.7526 0.103872 37.4934 0.0623229C37.2578 0.0207743 36.9986 0.0207743 36.7629 0H36.0324V0Z" fill="black"/>
<path d="M36.0323 0.727051H36.7629C36.9514 0.727051 37.1635 0.747825 37.3755 0.768599C37.5641 0.789374 37.7054 0.830922 37.8468 0.893245C37.9882 0.955568 38.1061 1.03867 38.2239 1.14254C38.3417 1.24641 38.436 1.35028 38.5067 1.47493C38.5774 1.59957 38.6245 1.72422 38.648 1.89041C38.6952 2.07738 38.6952 2.26435 38.6952 2.43054V19.5694C38.6952 19.7355 38.6716 19.9225 38.648 20.1095C38.6245 20.2549 38.5774 20.4003 38.5067 20.525C38.436 20.6496 38.3417 20.7535 38.2239 20.8574C38.1061 20.9612 37.9882 21.0443 37.8468 21.1067C37.7054 21.169 37.5641 21.2105 37.3755 21.2313C37.1635 21.2728 36.9514 21.2728 36.7629 21.2728H3.27705C3.1121 21.2728 2.87645 21.2521 2.66436 21.2313C2.49941 21.2105 2.33445 21.169 2.19306 21.0859C2.05168 21.0236 1.93385 20.9405 1.81603 20.8366C1.6982 20.7327 1.60394 20.6288 1.53325 20.5042C1.46255 20.3796 1.41542 20.2549 1.39186 20.0887C1.34473 19.9017 1.34473 19.7148 1.34473 19.5486V2.72139V2.43054C1.34473 2.26435 1.36829 2.07738 1.39186 1.89041C1.41542 1.74499 1.46255 1.59957 1.53325 1.47493C1.60394 1.35028 1.6982 1.24641 1.81603 1.14254C1.93385 1.03867 2.05168 0.955568 2.19306 0.893245C2.33445 0.830922 2.47584 0.789374 2.66436 0.768599C2.87645 0.727051 3.08853 0.727051 3.27705 0.727051H36.0323Z" fill="white"/>
<path d="M11.1712 6.55807C11.5011 6.13314 11.7368 5.56657 11.6661 5C11.1712 5.02361 10.5821 5.3305 10.2286 5.73182C9.92229 6.08593 9.63951 6.67611 9.71021 7.21907C10.2758 7.2899 10.8178 6.983 11.1712 6.55807ZM11.6661 7.36072C10.8649 7.3135 10.1815 7.80925 9.80447 7.80925C9.42743 7.80925 8.8383 7.38432 8.20205 7.38432C7.37728 7.40793 6.6232 7.85647 6.19903 8.6119C5.35069 10.0992 5.96338 12.2946 6.81172 13.4986C7.21232 14.0888 7.70719 14.7498 8.34344 14.7262C8.95613 14.7025 9.19178 14.3248 9.92229 14.3248C10.6528 14.3248 10.8649 14.7262 11.5247 14.7025C12.1845 14.6789 12.6087 14.1124 13.0093 13.4986C13.4806 12.814 13.6691 12.153 13.6691 12.1294C13.6456 12.1058 12.373 11.6336 12.373 10.17C12.3495 8.9424 13.3628 8.35222 13.4099 8.32861C12.8679 7.47875 11.9724 7.38432 11.6661 7.36072Z" fill="black"/>
<path d="M18.5943 5.68457C20.3381 5.68457 21.5399 6.88854 21.5399 8.61186C21.5399 10.3588 20.3145 11.5628 18.5471 11.5628H16.6384V14.6081H15.248V5.68457H18.5943ZM16.6384 10.406H18.2172C19.419 10.406 20.1024 9.74501 20.1024 8.63547C20.1024 7.50232 19.419 6.86493 18.2172 6.86493H16.6148V10.406H16.6384ZM21.8934 12.7903C21.8934 11.6572 22.7653 10.949 24.3206 10.8545L26.1115 10.7601V10.2644C26.1115 9.53254 25.6166 9.10761 24.8154 9.10761C24.0378 9.10761 23.5665 9.48533 23.4487 10.0519H22.1761C22.2468 8.87154 23.2601 7.99807 24.8625 7.99807C26.4414 7.99807 27.4547 8.82432 27.4547 10.1463V14.6317H26.1822V13.5694H26.1586C25.7816 14.3012 24.9568 14.7497 24.1085 14.7497C22.7888 14.7497 21.8934 13.9471 21.8934 12.7903ZM26.1115 12.2002V11.6808L24.5091 11.7752C23.7079 11.8224 23.2601 12.1765 23.2601 12.7431C23.2601 13.3097 23.7314 13.6874 24.4384 13.6874C25.381 13.6874 26.1115 13.05 26.1115 12.2002ZM28.6329 17.0396V15.9537C28.7272 15.9773 28.9628 15.9773 29.0571 15.9773C29.6698 15.9773 29.9997 15.7176 30.2118 15.0566C30.2118 15.033 30.3296 14.6553 30.3296 14.6553L27.9731 8.13972H29.4106L31.0601 13.4513H31.0837L32.7332 8.13972H34.1471L31.7199 15.0094C31.1544 16.5911 30.5181 17.0868 29.1749 17.0868C29.0807 17.0632 28.7508 17.0632 28.6329 17.0396Z" fill="black"/>
</svg>
