<svg width="293" height="184" viewBox="0 0 293 184" fill="none" xmlns="http://www.w3.org/2000/svg">
<g opacity="0.6">
<path d="M1.34 7.638V8.814H2.32V11.754H1.284V13H8.494V11.754H3.664V8.814H5.302V7.638H3.664V6.042C3.664 4.922 4.294 4.25 5.358 4.25C6.45 4.25 7.094 4.936 7.094 6.042V6.882H8.438V6.07C8.438 4.11 7.248 3.004 5.316 3.004C3.482 3.004 2.32 4.068 2.32 6.07V7.638H1.34ZM12.062 3.2L9.38803 7.498H10.9L12.636 4.684H12.804V13H14.19L14.204 3.2H12.062ZM22.8423 6.126H20.8963L17.4103 9.206V3.2H16.0943V13H17.4103V10.816L18.6843 9.71L21.1763 13H22.7863L19.6223 8.898L22.8423 6.126Z" fill="#333B4F"/>
<path d="M1.34 7.638V8.814H2.32V11.754H1.284V13H8.494V11.754H3.664V8.814H5.302V7.638H3.664V6.042C3.664 4.922 4.294 4.25 5.358 4.25C6.45 4.25 7.094 4.936 7.094 6.042V6.882H8.438V6.07C8.438 4.11 7.248 3.004 5.316 3.004C3.482 3.004 2.32 4.068 2.32 6.07V7.638H1.34ZM12.062 3.2L9.38803 7.498H10.9L12.636 4.684H12.804V13H14.19L14.204 3.2H12.062ZM22.8423 6.126H20.8963L17.4103 9.206V3.2H16.0943V13H17.4103V10.816L18.6843 9.71L21.1763 13H22.7863L19.6223 8.898L22.8423 6.126Z" fill="#192135"/>
</g>
<g opacity="0.6">
<path d="M1.34 53.638V54.814H2.32V57.754H1.284V59H8.494V57.754H3.664V54.814H5.302V53.638H3.664V52.042C3.664 50.922 4.294 50.25 5.358 50.25C6.45 50.25 7.094 50.936 7.094 52.042V52.882H8.438V52.07C8.438 50.11 7.248 49.004 5.316 49.004C3.482 49.004 2.32 50.068 2.32 52.07V53.638H1.34ZM10.13 49.2V54.52H12.02C12.23 54.114 12.664 53.582 13.63 53.582C14.764 53.582 15.52 54.366 15.52 55.654C15.52 57.082 14.722 57.964 13.35 57.964C12.02 57.964 11.18 57.166 11.18 55.766V55.542H9.80803V55.85C9.80803 57.866 11.25 59.196 13.392 59.196C15.534 59.196 16.92 57.726 16.92 55.612C16.92 53.61 15.576 52.406 13.966 52.406C12.552 52.406 11.964 53.12 11.684 53.624H11.516V50.446H16.626V49.2H10.13ZM17.9734 52.98V55.22C17.9734 57.824 19.3874 59.196 21.6134 59.196C23.8394 59.196 25.2394 57.824 25.2394 55.22V52.98C25.2394 50.418 23.8394 49.004 21.6134 49.004C19.3874 49.004 17.9734 50.418 17.9734 52.98ZM19.3594 52.91C19.3594 51.286 20.1434 50.236 21.6134 50.236C23.0554 50.236 23.8674 51.258 23.8674 52.91V55.29C23.8674 56.928 23.1394 57.964 21.6134 57.964C20.1014 57.964 19.3594 56.956 19.3594 55.29V52.91ZM26.491 52.98V55.22C26.491 57.824 27.905 59.196 30.131 59.196C32.357 59.196 33.757 57.824 33.757 55.22V52.98C33.757 50.418 32.357 49.004 30.131 49.004C27.905 49.004 26.491 50.418 26.491 52.98ZM27.877 52.91C27.877 51.286 28.661 50.236 30.131 50.236C31.573 50.236 32.385 51.258 32.385 52.91V55.29C32.385 56.928 31.657 57.964 30.131 57.964C28.619 57.964 27.877 56.956 27.877 55.29V52.91Z" fill="#333B4F"/>
<path d="M1.34 53.638V54.814H2.32V57.754H1.284V59H8.494V57.754H3.664V54.814H5.302V53.638H3.664V52.042C3.664 50.922 4.294 50.25 5.358 50.25C6.45 50.25 7.094 50.936 7.094 52.042V52.882H8.438V52.07C8.438 50.11 7.248 49.004 5.316 49.004C3.482 49.004 2.32 50.068 2.32 52.07V53.638H1.34ZM10.13 49.2V54.52H12.02C12.23 54.114 12.664 53.582 13.63 53.582C14.764 53.582 15.52 54.366 15.52 55.654C15.52 57.082 14.722 57.964 13.35 57.964C12.02 57.964 11.18 57.166 11.18 55.766V55.542H9.80803V55.85C9.80803 57.866 11.25 59.196 13.392 59.196C15.534 59.196 16.92 57.726 16.92 55.612C16.92 53.61 15.576 52.406 13.966 52.406C12.552 52.406 11.964 53.12 11.684 53.624H11.516V50.446H16.626V49.2H10.13ZM17.9734 52.98V55.22C17.9734 57.824 19.3874 59.196 21.6134 59.196C23.8394 59.196 25.2394 57.824 25.2394 55.22V52.98C25.2394 50.418 23.8394 49.004 21.6134 49.004C19.3874 49.004 17.9734 50.418 17.9734 52.98ZM19.3594 52.91C19.3594 51.286 20.1434 50.236 21.6134 50.236C23.0554 50.236 23.8674 51.258 23.8674 52.91V55.29C23.8674 56.928 23.1394 57.964 21.6134 57.964C20.1014 57.964 19.3594 56.956 19.3594 55.29V52.91ZM26.491 52.98V55.22C26.491 57.824 27.905 59.196 30.131 59.196C32.357 59.196 33.757 57.824 33.757 55.22V52.98C33.757 50.418 32.357 49.004 30.131 49.004C27.905 49.004 26.491 50.418 26.491 52.98ZM27.877 52.91C27.877 51.286 28.661 50.236 30.131 50.236C31.573 50.236 32.385 51.258 32.385 52.91V55.29C32.385 56.928 31.657 57.964 30.131 57.964C28.619 57.964 27.877 56.956 27.877 55.29V52.91Z" fill="#192135"/>
</g>
<g opacity="0.6">
<path d="M1.34 99.638V100.814H2.32V103.754H1.284V105H8.494V103.754H3.664V100.814H5.302V99.638H3.664V98.042C3.664 96.922 4.294 96.25 5.358 96.25C6.45 96.25 7.094 96.936 7.094 98.042V98.882H8.438V98.07C8.438 96.11 7.248 95.004 5.316 95.004C3.482 95.004 2.32 96.068 2.32 98.07V99.638H1.34ZM12.062 95.2L9.38803 99.498H10.9L12.636 96.684H12.804V105H14.19L14.204 95.2H12.062ZM15.7723 98.98V101.22C15.7723 103.824 17.1863 105.196 19.4123 105.196C21.6383 105.196 23.0383 103.824 23.0383 101.22V98.98C23.0383 96.418 21.6383 95.004 19.4123 95.004C17.1863 95.004 15.7723 96.418 15.7723 98.98ZM17.1583 98.91C17.1583 97.286 17.9423 96.236 19.4123 96.236C20.8543 96.236 21.6663 97.258 21.6663 98.91V101.29C21.6663 102.928 20.9383 103.964 19.4123 103.964C17.9003 103.964 17.1583 102.956 17.1583 101.29V98.91ZM24.2898 98.98V101.22C24.2898 103.824 25.7038 105.196 27.9298 105.196C30.1558 105.196 31.5558 103.824 31.5558 101.22V98.98C31.5558 96.418 30.1558 95.004 27.9298 95.004C25.7038 95.004 24.2898 96.418 24.2898 98.98ZM25.6758 98.91C25.6758 97.286 26.4598 96.236 27.9298 96.236C29.3718 96.236 30.1838 97.258 30.1838 98.91V101.29C30.1838 102.928 29.4558 103.964 27.9298 103.964C26.4178 103.964 25.6758 102.956 25.6758 101.29V98.91Z" fill="#333B4F"/>
<path d="M1.34 99.638V100.814H2.32V103.754H1.284V105H8.494V103.754H3.664V100.814H5.302V99.638H3.664V98.042C3.664 96.922 4.294 96.25 5.358 96.25C6.45 96.25 7.094 96.936 7.094 98.042V98.882H8.438V98.07C8.438 96.11 7.248 95.004 5.316 95.004C3.482 95.004 2.32 96.068 2.32 98.07V99.638H1.34ZM12.062 95.2L9.38803 99.498H10.9L12.636 96.684H12.804V105H14.19L14.204 95.2H12.062ZM15.7723 98.98V101.22C15.7723 103.824 17.1863 105.196 19.4123 105.196C21.6383 105.196 23.0383 103.824 23.0383 101.22V98.98C23.0383 96.418 21.6383 95.004 19.4123 95.004C17.1863 95.004 15.7723 96.418 15.7723 98.98ZM17.1583 98.91C17.1583 97.286 17.9423 96.236 19.4123 96.236C20.8543 96.236 21.6663 97.258 21.6663 98.91V101.29C21.6663 102.928 20.9383 103.964 19.4123 103.964C17.9003 103.964 17.1583 102.956 17.1583 101.29V98.91ZM24.2898 98.98V101.22C24.2898 103.824 25.7038 105.196 27.9298 105.196C30.1558 105.196 31.5558 103.824 31.5558 101.22V98.98C31.5558 96.418 30.1558 95.004 27.9298 95.004C25.7038 95.004 24.2898 96.418 24.2898 98.98ZM25.6758 98.91C25.6758 97.286 26.4598 96.236 27.9298 96.236C29.3718 96.236 30.1838 97.258 30.1838 98.91V101.29C30.1838 102.928 29.4558 103.964 27.9298 103.964C26.4178 103.964 25.6758 102.956 25.6758 101.29V98.91Z" fill="#192135"/>
</g>
<g opacity="0.6">
<path d="M1.116 144.98V147.22C1.116 149.824 2.53 151.196 4.756 151.196C6.982 151.196 8.382 149.824 8.382 147.22V144.98C8.382 142.418 6.982 141.004 4.756 141.004C2.53 141.004 1.116 142.418 1.116 144.98ZM2.502 144.91C2.502 143.286 3.286 142.236 4.756 142.236C6.198 142.236 7.01 143.258 7.01 144.91V147.29C7.01 148.928 6.282 149.964 4.756 149.964C3.244 149.964 2.502 148.956 2.502 147.29V144.91Z" fill="#333B4F"/>
<path d="M1.116 144.98V147.22C1.116 149.824 2.53 151.196 4.756 151.196C6.982 151.196 8.382 149.824 8.382 147.22V144.98C8.382 142.418 6.982 141.004 4.756 141.004C2.53 141.004 1.116 142.418 1.116 144.98ZM2.502 144.91C2.502 143.286 3.286 142.236 4.756 142.236C6.198 142.236 7.01 143.258 7.01 144.91V147.29C7.01 148.928 6.282 149.964 4.756 149.964C3.244 149.964 2.502 148.956 2.502 147.29V144.91Z" fill="#192135"/>
</g>
<g opacity="0.6">
<path d="M42.91 169.2L38.668 175.822V177.026H43.736V179H45.122V177.026H46.788V175.78H45.122V169.2H42.91ZM43.568 170.432H43.736V175.78H40.138L43.568 170.432ZM47.6645 173.974L48.8965 174.366C49.0645 173.582 49.6245 173.008 50.6605 173.008C51.7105 173.008 52.2285 173.596 52.2285 174.45V174.898H50.0445C48.5465 174.898 47.4405 175.612 47.4405 177.026C47.4405 178.412 48.5465 179.196 49.9745 179.196C51.3045 179.196 51.8365 178.538 52.0885 178.076H52.2565V179H53.5165V174.534C53.5165 172.882 52.4385 171.93 50.6745 171.93C48.9245 171.93 48.0005 172.854 47.6645 173.974ZM48.7565 176.998C48.7565 176.326 49.3025 175.962 50.1145 175.962H52.2285V176.102C52.2285 177.348 51.4025 178.118 50.1985 178.118C49.3025 178.118 48.7565 177.67 48.7565 176.998ZM55.311 172.126V179H56.627V174.856C56.627 173.722 57.257 173.092 58.195 173.092C59.077 173.092 59.581 173.61 59.581 174.478V179H60.897V174.856C60.897 173.722 61.527 173.092 62.465 173.092C63.347 173.092 63.865 173.61 63.865 174.478V179H65.167V174.394C65.167 172.868 64.187 172 62.857 172C61.751 172 61.135 172.49 60.771 173.19H60.631C60.323 172.504 59.707 172 58.657 172C57.635 172 57.047 172.434 56.739 173.008H56.599V172.126H55.311Z" fill="#333B4F"/>
<path d="M42.91 169.2L38.668 175.822V177.026H43.736V179H45.122V177.026H46.788V175.78H45.122V169.2H42.91ZM43.568 170.432H43.736V175.78H40.138L43.568 170.432ZM47.6645 173.974L48.8965 174.366C49.0645 173.582 49.6245 173.008 50.6605 173.008C51.7105 173.008 52.2285 173.596 52.2285 174.45V174.898H50.0445C48.5465 174.898 47.4405 175.612 47.4405 177.026C47.4405 178.412 48.5465 179.196 49.9745 179.196C51.3045 179.196 51.8365 178.538 52.0885 178.076H52.2565V179H53.5165V174.534C53.5165 172.882 52.4385 171.93 50.6745 171.93C48.9245 171.93 48.0005 172.854 47.6645 173.974ZM48.7565 176.998C48.7565 176.326 49.3025 175.962 50.1145 175.962H52.2285V176.102C52.2285 177.348 51.4025 178.118 50.1985 178.118C49.3025 178.118 48.7565 177.67 48.7565 176.998ZM55.311 172.126V179H56.627V174.856C56.627 173.722 57.257 173.092 58.195 173.092C59.077 173.092 59.581 173.61 59.581 174.478V179H60.897V174.856C60.897 173.722 61.527 173.092 62.465 173.092C63.347 173.092 63.865 173.61 63.865 174.478V179H65.167V174.394C65.167 172.868 64.187 172 62.857 172C61.751 172 61.135 172.49 60.771 173.19H60.631C60.323 172.504 59.707 172 58.657 172C57.635 172 57.047 172.434 56.739 173.008H56.599V172.126H55.311Z" fill="#192135"/>
</g>
<g opacity="0.6">
<path d="M93.102 171.65C93.102 172.91 93.97 173.554 94.768 173.848V174.016C93.984 174.198 92.934 174.954 92.934 176.382C92.934 178.062 94.418 179.196 96.518 179.196C98.632 179.196 100.102 178.062 100.102 176.382C100.102 174.954 99.066 174.198 98.282 174.016V173.848C99.08 173.554 99.948 172.91 99.948 171.65C99.948 170.124 98.59 169.004 96.518 169.004C94.46 169.004 93.102 170.124 93.102 171.65ZM94.488 171.79C94.488 170.796 95.342 170.236 96.518 170.236C97.708 170.236 98.562 170.796 98.562 171.79C98.562 172.77 97.708 173.344 96.518 173.344C95.342 173.344 94.488 172.77 94.488 171.79ZM94.32 176.27C94.32 175.192 95.188 174.576 96.518 174.576C97.862 174.576 98.73 175.192 98.73 176.27C98.73 177.334 97.862 177.964 96.518 177.964C95.188 177.964 94.32 177.334 94.32 176.27ZM101.323 173.974L102.555 174.366C102.723 173.582 103.283 173.008 104.319 173.008C105.369 173.008 105.887 173.596 105.887 174.45V174.898H103.703C102.205 174.898 101.099 175.612 101.099 177.026C101.099 178.412 102.205 179.196 103.633 179.196C104.963 179.196 105.495 178.538 105.747 178.076H105.915V179H107.175V174.534C107.175 172.882 106.097 171.93 104.333 171.93C102.583 171.93 101.659 172.854 101.323 173.974ZM102.415 176.998C102.415 176.326 102.961 175.962 103.773 175.962H105.887V176.102C105.887 177.348 105.061 178.118 103.857 178.118C102.961 178.118 102.415 177.67 102.415 176.998ZM108.969 172.126V179H110.285V174.856C110.285 173.722 110.915 173.092 111.853 173.092C112.735 173.092 113.239 173.61 113.239 174.478V179H114.555V174.856C114.555 173.722 115.185 173.092 116.123 173.092C117.005 173.092 117.523 173.61 117.523 174.478V179H118.825V174.394C118.825 172.868 117.845 172 116.515 172C115.409 172 114.793 172.49 114.429 173.19H114.289C113.981 172.504 113.365 172 112.315 172C111.293 172 110.705 172.434 110.397 173.008H110.257V172.126H108.969Z" fill="#333B4F"/>
<path d="M93.102 171.65C93.102 172.91 93.97 173.554 94.768 173.848V174.016C93.984 174.198 92.934 174.954 92.934 176.382C92.934 178.062 94.418 179.196 96.518 179.196C98.632 179.196 100.102 178.062 100.102 176.382C100.102 174.954 99.066 174.198 98.282 174.016V173.848C99.08 173.554 99.948 172.91 99.948 171.65C99.948 170.124 98.59 169.004 96.518 169.004C94.46 169.004 93.102 170.124 93.102 171.65ZM94.488 171.79C94.488 170.796 95.342 170.236 96.518 170.236C97.708 170.236 98.562 170.796 98.562 171.79C98.562 172.77 97.708 173.344 96.518 173.344C95.342 173.344 94.488 172.77 94.488 171.79ZM94.32 176.27C94.32 175.192 95.188 174.576 96.518 174.576C97.862 174.576 98.73 175.192 98.73 176.27C98.73 177.334 97.862 177.964 96.518 177.964C95.188 177.964 94.32 177.334 94.32 176.27ZM101.323 173.974L102.555 174.366C102.723 173.582 103.283 173.008 104.319 173.008C105.369 173.008 105.887 173.596 105.887 174.45V174.898H103.703C102.205 174.898 101.099 175.612 101.099 177.026C101.099 178.412 102.205 179.196 103.633 179.196C104.963 179.196 105.495 178.538 105.747 178.076H105.915V179H107.175V174.534C107.175 172.882 106.097 171.93 104.333 171.93C102.583 171.93 101.659 172.854 101.323 173.974ZM102.415 176.998C102.415 176.326 102.961 175.962 103.773 175.962H105.887V176.102C105.887 177.348 105.061 178.118 103.857 178.118C102.961 178.118 102.415 177.67 102.415 176.998ZM108.969 172.126V179H110.285V174.856C110.285 173.722 110.915 173.092 111.853 173.092C112.735 173.092 113.239 173.61 113.239 174.478V179H114.555V174.856C114.555 173.722 115.185 173.092 116.123 173.092C117.005 173.092 117.523 173.61 117.523 174.478V179H118.825V174.394C118.825 172.868 117.845 172 116.515 172C115.409 172 114.793 172.49 114.429 173.19H114.289C113.981 172.504 113.365 172 112.315 172C111.293 172 110.705 172.434 110.397 173.008H110.257V172.126H108.969Z" fill="#192135"/>
</g>
<g opacity="0.6">
<path d="M149.23 169.2L146.556 173.498H148.068L149.804 170.684H149.972V179H151.358L151.372 169.2H149.23ZM152.87 172.42V172.756H154.256V172.462C154.256 170.978 155.208 170.236 156.468 170.236C157.7 170.236 158.526 170.95 158.526 172.168C158.526 173.428 157.602 174.03 156.062 174.422C154.172 174.912 152.87 175.71 152.87 177.642V179H159.898V177.754H154.27V177.502C154.27 176.242 155.138 175.92 156.72 175.514C158.736 174.996 159.912 174.058 159.912 172.196C159.912 170.236 158.386 169.004 156.454 169.004C154.48 169.004 152.87 170.208 152.87 172.42ZM161.329 181.8H162.645V177.95H162.785C163.177 178.58 163.891 179.196 165.235 179.196C166.985 179.196 168.441 177.796 168.441 175.57C168.441 173.344 166.985 171.93 165.235 171.93C163.891 171.93 163.177 172.546 162.757 173.232H162.617V172.126H161.329V181.8ZM164.885 178.048C163.569 178.048 162.631 177.11 162.631 175.57C162.631 174.016 163.569 173.078 164.885 173.078C166.187 173.078 167.111 174.002 167.111 175.57C167.111 177.124 166.187 178.048 164.885 178.048ZM169.887 172.126V179H171.203V174.856C171.203 173.722 171.833 173.092 172.771 173.092C173.653 173.092 174.157 173.61 174.157 174.478V179H175.473V174.856C175.473 173.722 176.103 173.092 177.041 173.092C177.923 173.092 178.441 173.61 178.441 174.478V179H179.743V174.394C179.743 172.868 178.763 172 177.433 172C176.327 172 175.711 172.49 175.347 173.19H175.207C174.899 172.504 174.283 172 173.233 172C172.211 172 171.623 172.434 171.315 173.008H171.175V172.126H169.887Z" fill="#333B4F"/>
<path d="M149.23 169.2L146.556 173.498H148.068L149.804 170.684H149.972V179H151.358L151.372 169.2H149.23ZM152.87 172.42V172.756H154.256V172.462C154.256 170.978 155.208 170.236 156.468 170.236C157.7 170.236 158.526 170.95 158.526 172.168C158.526 173.428 157.602 174.03 156.062 174.422C154.172 174.912 152.87 175.71 152.87 177.642V179H159.898V177.754H154.27V177.502C154.27 176.242 155.138 175.92 156.72 175.514C158.736 174.996 159.912 174.058 159.912 172.196C159.912 170.236 158.386 169.004 156.454 169.004C154.48 169.004 152.87 170.208 152.87 172.42ZM161.329 181.8H162.645V177.95H162.785C163.177 178.58 163.891 179.196 165.235 179.196C166.985 179.196 168.441 177.796 168.441 175.57C168.441 173.344 166.985 171.93 165.235 171.93C163.891 171.93 163.177 172.546 162.757 173.232H162.617V172.126H161.329V181.8ZM164.885 178.048C163.569 178.048 162.631 177.11 162.631 175.57C162.631 174.016 163.569 173.078 164.885 173.078C166.187 173.078 167.111 174.002 167.111 175.57C167.111 177.124 166.187 178.048 164.885 178.048ZM169.887 172.126V179H171.203V174.856C171.203 173.722 171.833 173.092 172.771 173.092C173.653 173.092 174.157 173.61 174.157 174.478V179H175.473V174.856C175.473 173.722 176.103 173.092 177.041 173.092C177.923 173.092 178.441 173.61 178.441 174.478V179H179.743V174.394C179.743 172.868 178.763 172 177.433 172C176.327 172 175.711 172.49 175.347 173.19H175.207C174.899 172.504 174.283 172 173.233 172C172.211 172 171.623 172.434 171.315 173.008H171.175V172.126H169.887Z" fill="#192135"/>
</g>
<g opacity="0.6">
<path d="M211.91 169.2L207.668 175.822V177.026H212.736V179H214.122V177.026H215.788V175.78H214.122V169.2H211.91ZM212.568 170.432H212.736V175.78H209.138L212.568 170.432ZM216.833 181.8H218.149V177.95H218.289C218.681 178.58 219.395 179.196 220.739 179.196C222.489 179.196 223.945 177.796 223.945 175.57C223.945 173.344 222.489 171.93 220.739 171.93C219.395 171.93 218.681 172.546 218.261 173.232H218.121V172.126H216.833V181.8ZM220.389 178.048C219.073 178.048 218.135 177.11 218.135 175.57C218.135 174.016 219.073 173.078 220.389 173.078C221.691 173.078 222.615 174.002 222.615 175.57C222.615 177.124 221.691 178.048 220.389 178.048ZM225.391 172.126V179H226.707V174.856C226.707 173.722 227.337 173.092 228.275 173.092C229.157 173.092 229.661 173.61 229.661 174.478V179H230.977V174.856C230.977 173.722 231.607 173.092 232.545 173.092C233.427 173.092 233.945 173.61 233.945 174.478V179H235.247V174.394C235.247 172.868 234.267 172 232.937 172C231.831 172 231.215 172.49 230.851 173.19H230.711C230.403 172.504 229.787 172 228.737 172C227.715 172 227.127 172.434 226.819 173.008H226.679V172.126H225.391Z" fill="#333B4F"/>
<path d="M211.91 169.2L207.668 175.822V177.026H212.736V179H214.122V177.026H215.788V175.78H214.122V169.2H211.91ZM212.568 170.432H212.736V175.78H209.138L212.568 170.432ZM216.833 181.8H218.149V177.95H218.289C218.681 178.58 219.395 179.196 220.739 179.196C222.489 179.196 223.945 177.796 223.945 175.57C223.945 173.344 222.489 171.93 220.739 171.93C219.395 171.93 218.681 172.546 218.261 173.232H218.121V172.126H216.833V181.8ZM220.389 178.048C219.073 178.048 218.135 177.11 218.135 175.57C218.135 174.016 219.073 173.078 220.389 173.078C221.691 173.078 222.615 174.002 222.615 175.57C222.615 177.124 221.691 178.048 220.389 178.048ZM225.391 172.126V179H226.707V174.856C226.707 173.722 227.337 173.092 228.275 173.092C229.157 173.092 229.661 173.61 229.661 174.478V179H230.977V174.856C230.977 173.722 231.607 173.092 232.545 173.092C233.427 173.092 233.945 173.61 233.945 174.478V179H235.247V174.394C235.247 172.868 234.267 172 232.937 172C231.831 172 231.215 172.49 230.851 173.19H230.711C230.403 172.504 229.787 172 228.737 172C227.715 172 227.127 172.434 226.819 173.008H226.679V172.126H225.391Z" fill="#192135"/>
</g>
<g opacity="0.6">
<path d="M263.102 171.65C263.102 172.91 263.97 173.554 264.768 173.848V174.016C263.984 174.198 262.934 174.954 262.934 176.382C262.934 178.062 264.418 179.196 266.518 179.196C268.632 179.196 270.102 178.062 270.102 176.382C270.102 174.954 269.066 174.198 268.282 174.016V173.848C269.08 173.554 269.948 172.91 269.948 171.65C269.948 170.124 268.59 169.004 266.518 169.004C264.46 169.004 263.102 170.124 263.102 171.65ZM264.488 171.79C264.488 170.796 265.342 170.236 266.518 170.236C267.708 170.236 268.562 170.796 268.562 171.79C268.562 172.77 267.708 173.344 266.518 173.344C265.342 173.344 264.488 172.77 264.488 171.79ZM264.32 176.27C264.32 175.192 265.188 174.576 266.518 174.576C267.862 174.576 268.73 175.192 268.73 176.27C268.73 177.334 267.862 177.964 266.518 177.964C265.188 177.964 264.32 177.334 264.32 176.27ZM271.491 181.8H272.807V177.95H272.947C273.339 178.58 274.053 179.196 275.397 179.196C277.147 179.196 278.603 177.796 278.603 175.57C278.603 173.344 277.147 171.93 275.397 171.93C274.053 171.93 273.339 172.546 272.919 173.232H272.779V172.126H271.491V181.8ZM275.047 178.048C273.731 178.048 272.793 177.11 272.793 175.57C272.793 174.016 273.731 173.078 275.047 173.078C276.349 173.078 277.273 174.002 277.273 175.57C277.273 177.124 276.349 178.048 275.047 178.048ZM280.049 172.126V179H281.365V174.856C281.365 173.722 281.995 173.092 282.933 173.092C283.815 173.092 284.319 173.61 284.319 174.478V179H285.635V174.856C285.635 173.722 286.265 173.092 287.203 173.092C288.085 173.092 288.603 173.61 288.603 174.478V179H289.905V174.394C289.905 172.868 288.925 172 287.595 172C286.489 172 285.873 172.49 285.509 173.19H285.369C285.061 172.504 284.445 172 283.395 172C282.373 172 281.785 172.434 281.477 173.008H281.337V172.126H280.049Z" fill="#333B4F"/>
<path d="M263.102 171.65C263.102 172.91 263.97 173.554 264.768 173.848V174.016C263.984 174.198 262.934 174.954 262.934 176.382C262.934 178.062 264.418 179.196 266.518 179.196C268.632 179.196 270.102 178.062 270.102 176.382C270.102 174.954 269.066 174.198 268.282 174.016V173.848C269.08 173.554 269.948 172.91 269.948 171.65C269.948 170.124 268.59 169.004 266.518 169.004C264.46 169.004 263.102 170.124 263.102 171.65ZM264.488 171.79C264.488 170.796 265.342 170.236 266.518 170.236C267.708 170.236 268.562 170.796 268.562 171.79C268.562 172.77 267.708 173.344 266.518 173.344C265.342 173.344 264.488 172.77 264.488 171.79ZM264.32 176.27C264.32 175.192 265.188 174.576 266.518 174.576C267.862 174.576 268.73 175.192 268.73 176.27C268.73 177.334 267.862 177.964 266.518 177.964C265.188 177.964 264.32 177.334 264.32 176.27ZM271.491 181.8H272.807V177.95H272.947C273.339 178.58 274.053 179.196 275.397 179.196C277.147 179.196 278.603 177.796 278.603 175.57C278.603 173.344 277.147 171.93 275.397 171.93C274.053 171.93 273.339 172.546 272.919 173.232H272.779V172.126H271.491V181.8ZM275.047 178.048C273.731 178.048 272.793 177.11 272.793 175.57C272.793 174.016 273.731 173.078 275.047 173.078C276.349 173.078 277.273 174.002 277.273 175.57C277.273 177.124 276.349 178.048 275.047 178.048ZM280.049 172.126V179H281.365V174.856C281.365 173.722 281.995 173.092 282.933 173.092C283.815 173.092 284.319 173.61 284.319 174.478V179H285.635V174.856C285.635 173.722 286.265 173.092 287.203 173.092C288.085 173.092 288.603 173.61 288.603 174.478V179H289.905V174.394C289.905 172.868 288.925 172 287.595 172C286.489 172 285.873 172.49 285.509 173.19H285.369C285.061 172.504 284.445 172 283.395 172C282.373 172 281.785 172.434 281.477 173.008H281.337V172.126H280.049Z" fill="#192135"/>
</g>
<path d="M41.5 146.294C85.5633 129.725 89.2186 15.5683 106.236 58.9534C110.069 68.7257 116.962 111.48 135.197 111.48C149.251 111.48 147.281 89.492 156.917 89.492C162.88 89.492 165.861 113.923 178.212 111.48C183.719 110.391 185.878 107.204 189.285 98.6537C194.726 85.0014 189.715 73.4456 193.97 58.9534C200.784 35.7441 210.338 76.9109 218.246 46.1272C221.227 34.5221 222.931 58.9535 233.152 58.9534C249.342 58.9533 235.399 86.2733 242.948 98.6537C255.639 119.468 291.5 111.48 291.5 111.48" stroke="#2BBF78" stroke-width="2"/>
<path d="M106.236 58.9534C89.2186 15.5683 85.5633 129.725 41.5 146.294V175H291.5V111.48C291.5 111.48 255.639 119.468 242.948 98.6537C235.399 86.2733 249.342 58.9533 233.152 58.9534C222.931 58.9535 221.227 34.5221 218.246 46.1272C210.338 76.9109 200.785 35.7441 193.97 58.9534C189.715 73.4456 194.726 85.0014 189.285 98.6537C185.878 107.204 183.719 110.391 178.212 111.48C165.861 113.923 162.88 89.492 156.917 89.492C147.281 89.492 149.251 111.48 135.197 111.48C116.962 111.48 110.069 68.7257 106.236 58.9534Z" fill="url(#paint0_linear)"/>
<defs>
<linearGradient id="paint0_linear" x1="166.5" y1="43" x2="166.5" y2="175" gradientUnits="userSpaceOnUse">
<stop stop-color="#2BBF78" stop-opacity="0.46"/>
<stop offset="0.764418" stop-color="#2BBF78" stop-opacity="0"/>
</linearGradient>
</defs>
</svg>
