<svg width="293" height="184" viewBox="0 0 293 184" fill="none" xmlns="http://www.w3.org/2000/svg">
<g clip-path="url(#clip0)">
<g opacity="0.6">
<path d="M3.23 3.2L0.556 7.498H2.068L3.804 4.684H3.972V13H5.358L5.372 3.2H3.23ZM14.0102 6.126H12.0642L8.57822 9.206V3.2H7.26222V13H8.57822V10.816L9.85222 9.71L12.3442 13H13.9542L10.7902 8.898L14.0102 6.126Z" fill="#333B4F"/>
<path d="M3.23 3.2L0.556 7.498H2.068L3.804 4.684H3.972V13H5.358L5.372 3.2H3.23ZM14.0102 6.126H12.0642L8.57822 9.206V3.2H7.26222V13H8.57822V10.816L9.85222 9.71L12.3442 13H13.9542L10.7902 8.898L14.0102 6.126Z" fill="#192135"/>
</g>
<g opacity="0.6">
<path d="M1.298 49.2V54.52H3.188C3.398 54.114 3.832 53.582 4.798 53.582C5.932 53.582 6.688 54.366 6.688 55.654C6.688 57.082 5.89 57.964 4.518 57.964C3.188 57.964 2.348 57.166 2.348 55.766V55.542H0.976V55.85C0.976 57.866 2.418 59.196 4.56 59.196C6.702 59.196 8.088 57.726 8.088 55.612C8.088 53.61 6.744 52.406 5.134 52.406C3.72 52.406 3.132 53.12 2.852 53.624H2.684V50.446H7.794V49.2H1.298ZM9.14139 52.98V55.22C9.14139 57.824 10.5554 59.196 12.7814 59.196C15.0074 59.196 16.4074 57.824 16.4074 55.22V52.98C16.4074 50.418 15.0074 49.004 12.7814 49.004C10.5554 49.004 9.14139 50.418 9.14139 52.98ZM10.5274 52.91C10.5274 51.286 11.3114 50.236 12.7814 50.236C14.2234 50.236 15.0354 51.258 15.0354 52.91V55.29C15.0354 56.928 14.3074 57.964 12.7814 57.964C11.2694 57.964 10.5274 56.956 10.5274 55.29V52.91ZM17.659 52.98V55.22C17.659 57.824 19.073 59.196 21.299 59.196C23.525 59.196 24.925 57.824 24.925 55.22V52.98C24.925 50.418 23.525 49.004 21.299 49.004C19.073 49.004 17.659 50.418 17.659 52.98ZM19.045 52.91C19.045 51.286 19.829 50.236 21.299 50.236C22.741 50.236 23.553 51.258 23.553 52.91V55.29C23.553 56.928 22.825 57.964 21.299 57.964C19.787 57.964 19.045 56.956 19.045 55.29V52.91Z" fill="#333B4F"/>
<path d="M1.298 49.2V54.52H3.188C3.398 54.114 3.832 53.582 4.798 53.582C5.932 53.582 6.688 54.366 6.688 55.654C6.688 57.082 5.89 57.964 4.518 57.964C3.188 57.964 2.348 57.166 2.348 55.766V55.542H0.976V55.85C0.976 57.866 2.418 59.196 4.56 59.196C6.702 59.196 8.088 57.726 8.088 55.612C8.088 53.61 6.744 52.406 5.134 52.406C3.72 52.406 3.132 53.12 2.852 53.624H2.684V50.446H7.794V49.2H1.298ZM9.14139 52.98V55.22C9.14139 57.824 10.5554 59.196 12.7814 59.196C15.0074 59.196 16.4074 57.824 16.4074 55.22V52.98C16.4074 50.418 15.0074 49.004 12.7814 49.004C10.5554 49.004 9.14139 50.418 9.14139 52.98ZM10.5274 52.91C10.5274 51.286 11.3114 50.236 12.7814 50.236C14.2234 50.236 15.0354 51.258 15.0354 52.91V55.29C15.0354 56.928 14.3074 57.964 12.7814 57.964C11.2694 57.964 10.5274 56.956 10.5274 55.29V52.91ZM17.659 52.98V55.22C17.659 57.824 19.073 59.196 21.299 59.196C23.525 59.196 24.925 57.824 24.925 55.22V52.98C24.925 50.418 23.525 49.004 21.299 49.004C19.073 49.004 17.659 50.418 17.659 52.98ZM19.045 52.91C19.045 51.286 19.829 50.236 21.299 50.236C22.741 50.236 23.553 51.258 23.553 52.91V55.29C23.553 56.928 22.825 57.964 21.299 57.964C19.787 57.964 19.045 56.956 19.045 55.29V52.91Z" fill="#192135"/>
</g>
<g opacity="0.6">
<path d="M3.23 95.2L0.556 99.498H2.068L3.804 96.684H3.972V105H5.358L5.372 95.2H3.23ZM6.94022 98.98V101.22C6.94022 103.824 8.35422 105.196 10.5802 105.196C12.8062 105.196 14.2062 103.824 14.2062 101.22V98.98C14.2062 96.418 12.8062 95.004 10.5802 95.004C8.35422 95.004 6.94022 96.418 6.94022 98.98ZM8.32622 98.91C8.32622 97.286 9.11022 96.236 10.5802 96.236C12.0222 96.236 12.8342 97.258 12.8342 98.91V101.29C12.8342 102.928 12.1062 103.964 10.5802 103.964C9.06822 103.964 8.32622 102.956 8.32622 101.29V98.91ZM15.4578 98.98V101.22C15.4578 103.824 16.8718 105.196 19.0978 105.196C21.3238 105.196 22.7238 103.824 22.7238 101.22V98.98C22.7238 96.418 21.3238 95.004 19.0978 95.004C16.8718 95.004 15.4578 96.418 15.4578 98.98ZM16.8438 98.91C16.8438 97.286 17.6278 96.236 19.0978 96.236C20.5398 96.236 21.3518 97.258 21.3518 98.91V101.29C21.3518 102.928 20.6238 103.964 19.0978 103.964C17.5858 103.964 16.8438 102.956 16.8438 101.29V98.91Z" fill="#333B4F"/>
<path d="M3.23 95.2L0.556 99.498H2.068L3.804 96.684H3.972V105H5.358L5.372 95.2H3.23ZM6.94022 98.98V101.22C6.94022 103.824 8.35422 105.196 10.5802 105.196C12.8062 105.196 14.2062 103.824 14.2062 101.22V98.98C14.2062 96.418 12.8062 95.004 10.5802 95.004C8.35422 95.004 6.94022 96.418 6.94022 98.98ZM8.32622 98.91C8.32622 97.286 9.11022 96.236 10.5802 96.236C12.0222 96.236 12.8342 97.258 12.8342 98.91V101.29C12.8342 102.928 12.1062 103.964 10.5802 103.964C9.06822 103.964 8.32622 102.956 8.32622 101.29V98.91ZM15.4578 98.98V101.22C15.4578 103.824 16.8718 105.196 19.0978 105.196C21.3238 105.196 22.7238 103.824 22.7238 101.22V98.98C22.7238 96.418 21.3238 95.004 19.0978 95.004C16.8718 95.004 15.4578 96.418 15.4578 98.98ZM16.8438 98.91C16.8438 97.286 17.6278 96.236 19.0978 96.236C20.5398 96.236 21.3518 97.258 21.3518 98.91V101.29C21.3518 102.928 20.6238 103.964 19.0978 103.964C17.5858 103.964 16.8438 102.956 16.8438 101.29V98.91Z" fill="#192135"/>
</g>
<g opacity="0.6">
<path d="M1.116 144.98V147.22C1.116 149.824 2.53 151.196 4.756 151.196C6.982 151.196 8.382 149.824 8.382 147.22V144.98C8.382 142.418 6.982 141.004 4.756 141.004C2.53 141.004 1.116 142.418 1.116 144.98ZM2.502 144.91C2.502 143.286 3.286 142.236 4.756 142.236C6.198 142.236 7.01 143.258 7.01 144.91V147.29C7.01 148.928 6.282 149.964 4.756 149.964C3.244 149.964 2.502 148.956 2.502 147.29V144.91Z" fill="#333B4F"/>
<path d="M1.116 144.98V147.22C1.116 149.824 2.53 151.196 4.756 151.196C6.982 151.196 8.382 149.824 8.382 147.22V144.98C8.382 142.418 6.982 141.004 4.756 141.004C2.53 141.004 1.116 142.418 1.116 144.98ZM2.502 144.91C2.502 143.286 3.286 142.236 4.756 142.236C6.198 142.236 7.01 143.258 7.01 144.91V147.29C7.01 148.928 6.282 149.964 4.756 149.964C3.244 149.964 2.502 148.956 2.502 147.29V144.91Z" fill="#192135"/>
</g>
<g opacity="0.6">
<path d="M42.91 169.2L38.668 175.822V177.026H43.736V179H45.122V177.026H46.788V175.78H45.122V169.2H42.91ZM43.568 170.432H43.736V175.78H40.138L43.568 170.432ZM47.6645 173.974L48.8965 174.366C49.0645 173.582 49.6245 173.008 50.6605 173.008C51.7105 173.008 52.2285 173.596 52.2285 174.45V174.898H50.0445C48.5465 174.898 47.4405 175.612 47.4405 177.026C47.4405 178.412 48.5465 179.196 49.9745 179.196C51.3045 179.196 51.8365 178.538 52.0885 178.076H52.2565V179H53.5165V174.534C53.5165 172.882 52.4385 171.93 50.6745 171.93C48.9245 171.93 48.0005 172.854 47.6645 173.974ZM48.7565 176.998C48.7565 176.326 49.3025 175.962 50.1145 175.962H52.2285V176.102C52.2285 177.348 51.4025 178.118 50.1985 178.118C49.3025 178.118 48.7565 177.67 48.7565 176.998ZM55.311 172.126V179H56.627V174.856C56.627 173.722 57.257 173.092 58.195 173.092C59.077 173.092 59.581 173.61 59.581 174.478V179H60.897V174.856C60.897 173.722 61.527 173.092 62.465 173.092C63.347 173.092 63.865 173.61 63.865 174.478V179H65.167V174.394C65.167 172.868 64.187 172 62.857 172C61.751 172 61.135 172.49 60.771 173.19H60.631C60.323 172.504 59.707 172 58.657 172C57.635 172 57.047 172.434 56.739 173.008H56.599V172.126H55.311Z" fill="#333B4F"/>
<path d="M42.91 169.2L38.668 175.822V177.026H43.736V179H45.122V177.026H46.788V175.78H45.122V169.2H42.91ZM43.568 170.432H43.736V175.78H40.138L43.568 170.432ZM47.6645 173.974L48.8965 174.366C49.0645 173.582 49.6245 173.008 50.6605 173.008C51.7105 173.008 52.2285 173.596 52.2285 174.45V174.898H50.0445C48.5465 174.898 47.4405 175.612 47.4405 177.026C47.4405 178.412 48.5465 179.196 49.9745 179.196C51.3045 179.196 51.8365 178.538 52.0885 178.076H52.2565V179H53.5165V174.534C53.5165 172.882 52.4385 171.93 50.6745 171.93C48.9245 171.93 48.0005 172.854 47.6645 173.974ZM48.7565 176.998C48.7565 176.326 49.3025 175.962 50.1145 175.962H52.2285V176.102C52.2285 177.348 51.4025 178.118 50.1985 178.118C49.3025 178.118 48.7565 177.67 48.7565 176.998ZM55.311 172.126V179H56.627V174.856C56.627 173.722 57.257 173.092 58.195 173.092C59.077 173.092 59.581 173.61 59.581 174.478V179H60.897V174.856C60.897 173.722 61.527 173.092 62.465 173.092C63.347 173.092 63.865 173.61 63.865 174.478V179H65.167V174.394C65.167 172.868 64.187 172 62.857 172C61.751 172 61.135 172.49 60.771 173.19H60.631C60.323 172.504 59.707 172 58.657 172C57.635 172 57.047 172.434 56.739 173.008H56.599V172.126H55.311Z" fill="#192135"/>
</g>
<g opacity="0.6">
<path d="M93.102 171.65C93.102 172.91 93.97 173.554 94.768 173.848V174.016C93.984 174.198 92.934 174.954 92.934 176.382C92.934 178.062 94.418 179.196 96.518 179.196C98.632 179.196 100.102 178.062 100.102 176.382C100.102 174.954 99.066 174.198 98.282 174.016V173.848C99.08 173.554 99.948 172.91 99.948 171.65C99.948 170.124 98.59 169.004 96.518 169.004C94.46 169.004 93.102 170.124 93.102 171.65ZM94.488 171.79C94.488 170.796 95.342 170.236 96.518 170.236C97.708 170.236 98.562 170.796 98.562 171.79C98.562 172.77 97.708 173.344 96.518 173.344C95.342 173.344 94.488 172.77 94.488 171.79ZM94.32 176.27C94.32 175.192 95.188 174.576 96.518 174.576C97.862 174.576 98.73 175.192 98.73 176.27C98.73 177.334 97.862 177.964 96.518 177.964C95.188 177.964 94.32 177.334 94.32 176.27ZM101.323 173.974L102.555 174.366C102.723 173.582 103.283 173.008 104.319 173.008C105.369 173.008 105.887 173.596 105.887 174.45V174.898H103.703C102.205 174.898 101.099 175.612 101.099 177.026C101.099 178.412 102.205 179.196 103.633 179.196C104.963 179.196 105.495 178.538 105.747 178.076H105.915V179H107.175V174.534C107.175 172.882 106.097 171.93 104.333 171.93C102.583 171.93 101.659 172.854 101.323 173.974ZM102.415 176.998C102.415 176.326 102.961 175.962 103.773 175.962H105.887V176.102C105.887 177.348 105.061 178.118 103.857 178.118C102.961 178.118 102.415 177.67 102.415 176.998ZM108.969 172.126V179H110.285V174.856C110.285 173.722 110.915 173.092 111.853 173.092C112.735 173.092 113.239 173.61 113.239 174.478V179H114.555V174.856C114.555 173.722 115.185 173.092 116.123 173.092C117.005 173.092 117.523 173.61 117.523 174.478V179H118.825V174.394C118.825 172.868 117.845 172 116.515 172C115.409 172 114.793 172.49 114.429 173.19H114.289C113.981 172.504 113.365 172 112.315 172C111.293 172 110.705 172.434 110.397 173.008H110.257V172.126H108.969Z" fill="#333B4F"/>
<path d="M93.102 171.65C93.102 172.91 93.97 173.554 94.768 173.848V174.016C93.984 174.198 92.934 174.954 92.934 176.382C92.934 178.062 94.418 179.196 96.518 179.196C98.632 179.196 100.102 178.062 100.102 176.382C100.102 174.954 99.066 174.198 98.282 174.016V173.848C99.08 173.554 99.948 172.91 99.948 171.65C99.948 170.124 98.59 169.004 96.518 169.004C94.46 169.004 93.102 170.124 93.102 171.65ZM94.488 171.79C94.488 170.796 95.342 170.236 96.518 170.236C97.708 170.236 98.562 170.796 98.562 171.79C98.562 172.77 97.708 173.344 96.518 173.344C95.342 173.344 94.488 172.77 94.488 171.79ZM94.32 176.27C94.32 175.192 95.188 174.576 96.518 174.576C97.862 174.576 98.73 175.192 98.73 176.27C98.73 177.334 97.862 177.964 96.518 177.964C95.188 177.964 94.32 177.334 94.32 176.27ZM101.323 173.974L102.555 174.366C102.723 173.582 103.283 173.008 104.319 173.008C105.369 173.008 105.887 173.596 105.887 174.45V174.898H103.703C102.205 174.898 101.099 175.612 101.099 177.026C101.099 178.412 102.205 179.196 103.633 179.196C104.963 179.196 105.495 178.538 105.747 178.076H105.915V179H107.175V174.534C107.175 172.882 106.097 171.93 104.333 171.93C102.583 171.93 101.659 172.854 101.323 173.974ZM102.415 176.998C102.415 176.326 102.961 175.962 103.773 175.962H105.887V176.102C105.887 177.348 105.061 178.118 103.857 178.118C102.961 178.118 102.415 177.67 102.415 176.998ZM108.969 172.126V179H110.285V174.856C110.285 173.722 110.915 173.092 111.853 173.092C112.735 173.092 113.239 173.61 113.239 174.478V179H114.555V174.856C114.555 173.722 115.185 173.092 116.123 173.092C117.005 173.092 117.523 173.61 117.523 174.478V179H118.825V174.394C118.825 172.868 117.845 172 116.515 172C115.409 172 114.793 172.49 114.429 173.19H114.289C113.981 172.504 113.365 172 112.315 172C111.293 172 110.705 172.434 110.397 173.008H110.257V172.126H108.969Z" fill="#192135"/>
</g>
<g opacity="0.6">
<path d="M149.23 169.2L146.556 173.498H148.068L149.804 170.684H149.972V179H151.358L151.372 169.2H149.23ZM152.87 172.42V172.756H154.256V172.462C154.256 170.978 155.208 170.236 156.468 170.236C157.7 170.236 158.526 170.95 158.526 172.168C158.526 173.428 157.602 174.03 156.062 174.422C154.172 174.912 152.87 175.71 152.87 177.642V179H159.898V177.754H154.27V177.502C154.27 176.242 155.138 175.92 156.72 175.514C158.736 174.996 159.912 174.058 159.912 172.196C159.912 170.236 158.386 169.004 156.454 169.004C154.48 169.004 152.87 170.208 152.87 172.42ZM161.329 181.8H162.645V177.95H162.785C163.177 178.58 163.891 179.196 165.235 179.196C166.985 179.196 168.441 177.796 168.441 175.57C168.441 173.344 166.985 171.93 165.235 171.93C163.891 171.93 163.177 172.546 162.757 173.232H162.617V172.126H161.329V181.8ZM164.885 178.048C163.569 178.048 162.631 177.11 162.631 175.57C162.631 174.016 163.569 173.078 164.885 173.078C166.187 173.078 167.111 174.002 167.111 175.57C167.111 177.124 166.187 178.048 164.885 178.048ZM169.887 172.126V179H171.203V174.856C171.203 173.722 171.833 173.092 172.771 173.092C173.653 173.092 174.157 173.61 174.157 174.478V179H175.473V174.856C175.473 173.722 176.103 173.092 177.041 173.092C177.923 173.092 178.441 173.61 178.441 174.478V179H179.743V174.394C179.743 172.868 178.763 172 177.433 172C176.327 172 175.711 172.49 175.347 173.19H175.207C174.899 172.504 174.283 172 173.233 172C172.211 172 171.623 172.434 171.315 173.008H171.175V172.126H169.887Z" fill="#333B4F"/>
<path d="M149.23 169.2L146.556 173.498H148.068L149.804 170.684H149.972V179H151.358L151.372 169.2H149.23ZM152.87 172.42V172.756H154.256V172.462C154.256 170.978 155.208 170.236 156.468 170.236C157.7 170.236 158.526 170.95 158.526 172.168C158.526 173.428 157.602 174.03 156.062 174.422C154.172 174.912 152.87 175.71 152.87 177.642V179H159.898V177.754H154.27V177.502C154.27 176.242 155.138 175.92 156.72 175.514C158.736 174.996 159.912 174.058 159.912 172.196C159.912 170.236 158.386 169.004 156.454 169.004C154.48 169.004 152.87 170.208 152.87 172.42ZM161.329 181.8H162.645V177.95H162.785C163.177 178.58 163.891 179.196 165.235 179.196C166.985 179.196 168.441 177.796 168.441 175.57C168.441 173.344 166.985 171.93 165.235 171.93C163.891 171.93 163.177 172.546 162.757 173.232H162.617V172.126H161.329V181.8ZM164.885 178.048C163.569 178.048 162.631 177.11 162.631 175.57C162.631 174.016 163.569 173.078 164.885 173.078C166.187 173.078 167.111 174.002 167.111 175.57C167.111 177.124 166.187 178.048 164.885 178.048ZM169.887 172.126V179H171.203V174.856C171.203 173.722 171.833 173.092 172.771 173.092C173.653 173.092 174.157 173.61 174.157 174.478V179H175.473V174.856C175.473 173.722 176.103 173.092 177.041 173.092C177.923 173.092 178.441 173.61 178.441 174.478V179H179.743V174.394C179.743 172.868 178.763 172 177.433 172C176.327 172 175.711 172.49 175.347 173.19H175.207C174.899 172.504 174.283 172 173.233 172C172.211 172 171.623 172.434 171.315 173.008H171.175V172.126H169.887Z" fill="#192135"/>
</g>
<g opacity="0.6">
<path d="M211.91 169.2L207.668 175.822V177.026H212.736V179H214.122V177.026H215.788V175.78H214.122V169.2H211.91ZM212.568 170.432H212.736V175.78H209.138L212.568 170.432ZM216.833 181.8H218.149V177.95H218.289C218.681 178.58 219.395 179.196 220.739 179.196C222.489 179.196 223.945 177.796 223.945 175.57C223.945 173.344 222.489 171.93 220.739 171.93C219.395 171.93 218.681 172.546 218.261 173.232H218.121V172.126H216.833V181.8ZM220.389 178.048C219.073 178.048 218.135 177.11 218.135 175.57C218.135 174.016 219.073 173.078 220.389 173.078C221.691 173.078 222.615 174.002 222.615 175.57C222.615 177.124 221.691 178.048 220.389 178.048ZM225.391 172.126V179H226.707V174.856C226.707 173.722 227.337 173.092 228.275 173.092C229.157 173.092 229.661 173.61 229.661 174.478V179H230.977V174.856C230.977 173.722 231.607 173.092 232.545 173.092C233.427 173.092 233.945 173.61 233.945 174.478V179H235.247V174.394C235.247 172.868 234.267 172 232.937 172C231.831 172 231.215 172.49 230.851 173.19H230.711C230.403 172.504 229.787 172 228.737 172C227.715 172 227.127 172.434 226.819 173.008H226.679V172.126H225.391Z" fill="#333B4F"/>
<path d="M211.91 169.2L207.668 175.822V177.026H212.736V179H214.122V177.026H215.788V175.78H214.122V169.2H211.91ZM212.568 170.432H212.736V175.78H209.138L212.568 170.432ZM216.833 181.8H218.149V177.95H218.289C218.681 178.58 219.395 179.196 220.739 179.196C222.489 179.196 223.945 177.796 223.945 175.57C223.945 173.344 222.489 171.93 220.739 171.93C219.395 171.93 218.681 172.546 218.261 173.232H218.121V172.126H216.833V181.8ZM220.389 178.048C219.073 178.048 218.135 177.11 218.135 175.57C218.135 174.016 219.073 173.078 220.389 173.078C221.691 173.078 222.615 174.002 222.615 175.57C222.615 177.124 221.691 178.048 220.389 178.048ZM225.391 172.126V179H226.707V174.856C226.707 173.722 227.337 173.092 228.275 173.092C229.157 173.092 229.661 173.61 229.661 174.478V179H230.977V174.856C230.977 173.722 231.607 173.092 232.545 173.092C233.427 173.092 233.945 173.61 233.945 174.478V179H235.247V174.394C235.247 172.868 234.267 172 232.937 172C231.831 172 231.215 172.49 230.851 173.19H230.711C230.403 172.504 229.787 172 228.737 172C227.715 172 227.127 172.434 226.819 173.008H226.679V172.126H225.391Z" fill="#192135"/>
</g>
<g opacity="0.6">
<path d="M263.102 171.65C263.102 172.91 263.97 173.554 264.768 173.848V174.016C263.984 174.198 262.934 174.954 262.934 176.382C262.934 178.062 264.418 179.196 266.518 179.196C268.632 179.196 270.102 178.062 270.102 176.382C270.102 174.954 269.066 174.198 268.282 174.016V173.848C269.08 173.554 269.948 172.91 269.948 171.65C269.948 170.124 268.59 169.004 266.518 169.004C264.46 169.004 263.102 170.124 263.102 171.65ZM264.488 171.79C264.488 170.796 265.342 170.236 266.518 170.236C267.708 170.236 268.562 170.796 268.562 171.79C268.562 172.77 267.708 173.344 266.518 173.344C265.342 173.344 264.488 172.77 264.488 171.79ZM264.32 176.27C264.32 175.192 265.188 174.576 266.518 174.576C267.862 174.576 268.73 175.192 268.73 176.27C268.73 177.334 267.862 177.964 266.518 177.964C265.188 177.964 264.32 177.334 264.32 176.27ZM271.491 181.8H272.807V177.95H272.947C273.339 178.58 274.053 179.196 275.397 179.196C277.147 179.196 278.603 177.796 278.603 175.57C278.603 173.344 277.147 171.93 275.397 171.93C274.053 171.93 273.339 172.546 272.919 173.232H272.779V172.126H271.491V181.8ZM275.047 178.048C273.731 178.048 272.793 177.11 272.793 175.57C272.793 174.016 273.731 173.078 275.047 173.078C276.349 173.078 277.273 174.002 277.273 175.57C277.273 177.124 276.349 178.048 275.047 178.048ZM280.049 172.126V179H281.365V174.856C281.365 173.722 281.995 173.092 282.933 173.092C283.815 173.092 284.319 173.61 284.319 174.478V179H285.635V174.856C285.635 173.722 286.265 173.092 287.203 173.092C288.085 173.092 288.603 173.61 288.603 174.478V179H289.905V174.394C289.905 172.868 288.925 172 287.595 172C286.489 172 285.873 172.49 285.509 173.19H285.369C285.061 172.504 284.445 172 283.395 172C282.373 172 281.785 172.434 281.477 173.008H281.337V172.126H280.049Z" fill="#333B4F"/>
<path d="M263.102 171.65C263.102 172.91 263.97 173.554 264.768 173.848V174.016C263.984 174.198 262.934 174.954 262.934 176.382C262.934 178.062 264.418 179.196 266.518 179.196C268.632 179.196 270.102 178.062 270.102 176.382C270.102 174.954 269.066 174.198 268.282 174.016V173.848C269.08 173.554 269.948 172.91 269.948 171.65C269.948 170.124 268.59 169.004 266.518 169.004C264.46 169.004 263.102 170.124 263.102 171.65ZM264.488 171.79C264.488 170.796 265.342 170.236 266.518 170.236C267.708 170.236 268.562 170.796 268.562 171.79C268.562 172.77 267.708 173.344 266.518 173.344C265.342 173.344 264.488 172.77 264.488 171.79ZM264.32 176.27C264.32 175.192 265.188 174.576 266.518 174.576C267.862 174.576 268.73 175.192 268.73 176.27C268.73 177.334 267.862 177.964 266.518 177.964C265.188 177.964 264.32 177.334 264.32 176.27ZM271.491 181.8H272.807V177.95H272.947C273.339 178.58 274.053 179.196 275.397 179.196C277.147 179.196 278.603 177.796 278.603 175.57C278.603 173.344 277.147 171.93 275.397 171.93C274.053 171.93 273.339 172.546 272.919 173.232H272.779V172.126H271.491V181.8ZM275.047 178.048C273.731 178.048 272.793 177.11 272.793 175.57C272.793 174.016 273.731 173.078 275.047 173.078C276.349 173.078 277.273 174.002 277.273 175.57C277.273 177.124 276.349 178.048 275.047 178.048ZM280.049 172.126V179H281.365V174.856C281.365 173.722 281.995 173.092 282.933 173.092C283.815 173.092 284.319 173.61 284.319 174.478V179H285.635V174.856C285.635 173.722 286.265 173.092 287.203 173.092C288.085 173.092 288.603 173.61 288.603 174.478V179H289.905V174.394C289.905 172.868 288.925 172 287.595 172C286.489 172 285.873 172.49 285.509 173.19H285.369C285.061 172.504 284.445 172 283.395 172C282.373 172 281.785 172.434 281.477 173.008H281.337V172.126H280.049Z" fill="#192135"/>
</g>
<path d="M41.5 146.294C85.5633 129.725 89.2186 15.5683 106.236 58.9534C110.069 68.7257 116.962 111.48 135.197 111.48C149.251 111.48 147.281 89.492 156.917 89.492C162.88 89.492 165.861 113.923 178.212 111.48C183.719 110.391 185.878 107.204 189.285 98.6537C194.726 85.0014 189.715 73.4456 193.97 58.9534C200.784 35.7441 210.338 76.9109 218.246 46.1272C221.227 34.5221 222.931 58.9535 233.152 58.9534C249.342 58.9533 235.399 86.2733 242.948 98.6537C255.639 119.468 291.5 111.48 291.5 111.48" stroke="#2BBF78" stroke-width="2"/>
<path d="M106.236 58.9534C89.2186 15.5683 85.5633 129.725 41.5 146.294V175H291.5V111.48C291.5 111.48 255.639 119.468 242.948 98.6537C235.399 86.2733 249.342 58.9533 233.152 58.9534C222.931 58.9535 221.227 34.5221 218.246 46.1272C210.338 76.9109 200.785 35.7441 193.97 58.9534C189.715 73.4456 194.726 85.0014 189.285 98.6537C185.878 107.204 183.719 110.391 178.212 111.48C165.861 113.923 162.88 89.492 156.917 89.492C147.281 89.492 149.251 111.48 135.197 111.48C116.962 111.48 110.069 68.7257 106.236 58.9534Z" fill="url(#paint0_linear)"/>
</g>
<defs>
<linearGradient id="paint0_linear" x1="166.5" y1="43" x2="166.5" y2="175" gradientUnits="userSpaceOnUse">
<stop stop-color="#2BBF78" stop-opacity="0.46"/>
<stop offset="0.764418" stop-color="#2BBF78" stop-opacity="0"/>
</linearGradient>
<clipPath id="clip0">
<rect width="292" height="184" fill="white" transform="translate(0.5)"/>
</clipPath>
</defs>
</svg>
